<?xml version="1.0" standalone="no" ?>
<!DOCTYPE svg PUBLIC "-//W3C//DTD SVG 1.1//EN" "http://www.w3.org/Graphics/SVG/1.1/DTD/svg11.dtd">
<svg width="0px" height="0px" xmlns="http://www.w3.org/2000/svg" version="1.1" >
	<rect x="0" y="0" width="20" height="20" fill="rgb(0,128,0)" stroke-width="1" stroke="rgb(0,0,255)" />
	<rect x="0" y="20" width="20" height="20" fill="rgb(0,128,0)" stroke-width="1" stroke="rgb(0,0,255)" />
	<rect x="0" y="40" width="20" height="20" fill="rgb(0,128,0)" stroke-width="1" stroke="rgb(0,0,255)" />
	<rect x="20" y="0" width="20" height="20" fill="rgb(0,128,0)" stroke-width="1" stroke="rgb(0,0,255)" />
	<rect x="20" y="20" width="20" height="20" fill="rgb(0,128,0)" stroke-width="1" stroke="rgb(0,0,255)" />
	<rect x="20" y="40" width="20" height="20" fill="rgb(0,128,0)" stroke-width="1" stroke="rgb(0,0,255)" />
	<rect x="40" y="0" width="20" height="20" fill="rgb(0,128,0)" stroke-width="1" stroke="rgb(0,0,255)" />
	<rect x="40" y="20" width="20" height="20" fill="rgb(0,128,0)" stroke-width="1" stroke="rgb(0,0,255)" />
	<rect x="40" y="40" width="20" height="20" fill="rgb(0,128,0)" stroke-width="1" stroke="rgb(0,0,255)" />
	<rect x="0" y="70" width="20" height="20" fill="rgb(0,128,0)" stroke-width="1" stroke="rgb(0,0,255)" />
	<rect x="0" y="90" width="20" height="20" fill="rgb(0,128,0)" stroke-width="1" stroke="rgb(0,0,255)" />
	<rect x="0" y="110" width="20" height="20" fill="rgb(0,128,0)" stroke-width="1" stroke="rgb(0,0,255)" />
	<rect x="20" y="70" width="20" height="20" fill="rgb(0,128,0)" stroke-width="1" stroke="rgb(0,0,255)" />
	<rect x="20" y="90" width="20" height="20" fill="rgb(0,128,0)" stroke-width="1" stroke="rgb(0,0,255)" />
	<rect x="20" y="110" width="20" height="20" fill="rgb(0,128,0)" stroke-width="1" stroke="rgb(0,0,255)" />
	<rect x="40" y="70" width="20" height="20" fill="rgb(0,128,0)" stroke-width="1" stroke="rgb(0,0,255)" />
	<rect x="40" y="90" width="20" height="20" fill="rgb(0,128,0)" stroke-width="1" stroke="rgb(0,0,255)" />
	<rect x="40" y="110" width="20" height="20" fill="rgb(0,128,0)" stroke-width="1" stroke="rgb(0,0,255)" />
	<rect x="0" y="140" width="20" height="20" fill="rgb(0,128,0)" stroke-width="1" stroke="rgb(0,0,255)" />
	<rect x="0" y="160" width="20" height="20" fill="rgb(0,128,0)" stroke-width="1" stroke="rgb(0,0,255)" />
	<rect x="0" y="180" width="20" height="20" fill="rgb(0,128,0)" stroke-width="1" stroke="rgb(0,0,255)" />
	<rect x="20" y="140" width="20" height="20" fill="rgb(0,128,0)" stroke-width="1" stroke="rgb(0,0,255)" />
	<rect x="20" y="160" width="20" height="20" fill="rgb(0,128,0)" stroke-width="1" stroke="rgb(0,0,255)" />
	<rect x="20" y="180" width="20" height="20" fill="rgb(0,128,0)" stroke-width="1" stroke="rgb(0,0,255)" />
	<rect x="40" y="140" width="20" height="20" fill="rgb(0,128,0)" stroke-width="1" stroke="rgb(0,0,255)" />
	<rect x="40" y="160" width="20" height="20" fill="rgb(0,128,0)" stroke-width="1" stroke="rgb(0,0,255)" />
	<rect x="40" y="180" width="20" height="20" fill="rgb(0,128,0)" stroke-width="1" stroke="rgb(0,0,255)" />
	<rect x="0" y="210" width="20" height="20" fill="rgb(0,128,0)" stroke-width="1" stroke="rgb(0,0,255)" />
	<rect x="0" y="230" width="20" height="20" fill="rgb(0,128,0)" stroke-width="1" stroke="rgb(0,0,255)" />
	<rect x="0" y="250" width="20" height="20" fill="rgb(0,128,0)" stroke-width="1" stroke="rgb(0,0,255)" />
	<rect x="20" y="210" width="20" height="20" fill="rgb(0,128,0)" stroke-width="1" stroke="rgb(0,0,255)" />
	<rect x="20" y="230" width="20" height="20" fill="rgb(0,128,0)" stroke-width="1" stroke="rgb(0,0,255)" />
	<rect x="20" y="250" width="20" height="20" fill="rgb(0,128,0)" stroke-width="1" stroke="rgb(0,0,255)" />
	<rect x="40" y="210" width="20" height="20" fill="rgb(0,128,0)" stroke-width="1" stroke="rgb(0,0,255)" />
	<rect x="40" y="230" width="20" height="20" fill="rgb(0,128,0)" stroke-width="1" stroke="rgb(0,0,255)" />
	<rect x="40" y="250" width="20" height="20" fill="rgb(0,128,0)" stroke-width="1" stroke="rgb(0,0,255)" />
	<rect x="0" y="280" width="20" height="20" fill="rgb(0,128,0)" stroke-width="1" stroke="rgb(0,0,255)" />
	<rect x="0" y="300" width="20" height="20" fill="rgb(0,128,0)" stroke-width="1" stroke="rgb(0,0,255)" />
	<rect x="0" y="320" width="20" height="20" fill="rgb(0,128,0)" stroke-width="1" stroke="rgb(0,0,255)" />
	<rect x="20" y="280" width="20" height="20" fill="rgb(0,128,0)" stroke-width="1" stroke="rgb(0,0,255)" />
	<rect x="20" y="300" width="20" height="20" fill="rgb(0,128,0)" stroke-width="1" stroke="rgb(0,0,255)" />
	<rect x="20" y="320" width="20" height="20" fill="rgb(0,128,0)" stroke-width="1" stroke="rgb(0,0,255)" />
	<rect x="40" y="280" width="20" height="20" fill="rgb(0,128,0)" stroke-width="1" stroke="rgb(0,0,255)" />
	<rect x="40" y="300" width="20" height="20" fill="rgb(0,128,0)" stroke-width="1" stroke="rgb(0,0,255)" />
	<rect x="40" y="320" width="20" height="20" fill="rgb(0,128,0)" stroke-width="1" stroke="rgb(0,0,255)" />
	<rect x="0" y="350" width="20" height="20" fill="rgb(0,128,0)" stroke-width="1" stroke="rgb(0,0,255)" />
	<rect x="0" y="370" width="20" height="20" fill="rgb(0,128,0)" stroke-width="1" stroke="rgb(0,0,255)" />
	<rect x="0" y="390" width="20" height="20" fill="rgb(0,128,0)" stroke-width="1" stroke="rgb(0,0,255)" />
	<rect x="20" y="350" width="20" height="20" fill="rgb(0,128,0)" stroke-width="1" stroke="rgb(0,0,255)" />
	<rect x="20" y="370" width="20" height="20" fill="rgb(0,128,0)" stroke-width="1" stroke="rgb(0,0,255)" />
	<rect x="20" y="390" width="20" height="20" fill="rgb(0,128,0)" stroke-width="1" stroke="rgb(0,0,255)" />
	<rect x="40" y="350" width="20" height="20" fill="rgb(0,128,0)" stroke-width="1" stroke="rgb(0,0,255)" />
	<rect x="40" y="370" width="20" height="20" fill="rgb(0,128,0)" stroke-width="1" stroke="rgb(0,0,255)" />
	<rect x="40" y="390" width="20" height="20" fill="rgb(0,128,0)" stroke-width="1" stroke="rgb(0,0,255)" />
	<rect x="0" y="420" width="20" height="20" fill="rgb(0,128,0)" stroke-width="1" stroke="rgb(0,0,255)" />
	<rect x="0" y="440" width="20" height="20" fill="rgb(0,128,0)" stroke-width="1" stroke="rgb(0,0,255)" />
	<rect x="0" y="460" width="20" height="20" fill="rgb(0,128,0)" stroke-width="1" stroke="rgb(0,0,255)" />
	<rect x="20" y="420" width="20" height="20" fill="rgb(0,128,0)" stroke-width="1" stroke="rgb(0,0,255)" />
	<rect x="20" y="440" width="20" height="20" fill="rgb(0,128,0)" stroke-width="1" stroke="rgb(0,0,255)" />
	<rect x="20" y="460" width="20" height="20" fill="rgb(0,128,0)" stroke-width="1" stroke="rgb(0,0,255)" />
	<rect x="40" y="420" width="20" height="20" fill="rgb(0,128,0)" stroke-width="1" stroke="rgb(0,0,255)" />
	<rect x="40" y="440" width="20" height="20" fill="rgb(0,128,0)" stroke-width="1" stroke="rgb(0,0,255)" />
	<rect x="40" y="460" width="20" height="20" fill="rgb(0,128,0)" stroke-width="1" stroke="rgb(0,0,255)" />
	<text x="1" y="10" fill="rgb(255,255,0)" font-size="4" font-family="Verdana" >0|1</text>
	<text x="21" y="10" fill="rgb(255,255,0)" font-size="4" font-family="Verdana" >1|0</text>
	<text x="41" y="10" fill="rgb(255,255,0)" font-size="4" font-family="Verdana" >0|2</text>
	<text x="1" y="30" fill="rgb(255,255,0)" font-size="4" font-family="Verdana" >1|1</text>
	<text x="21" y="30" fill="rgb(255,255,0)" font-size="4" font-family="Verdana" >2|0</text>
	<text x="41" y="30" fill="rgb(255,255,0)" font-size="4" font-family="Verdana" >1|2</text>
	<text x="1" y="50" fill="rgb(255,255,0)" font-size="4" font-family="Verdana" >2|2</text>
	<text x="21" y="50" fill="rgb(255,255,0)" font-size="4" font-family="Verdana" >2|1</text>
	<text x="41" y="50" fill="rgb(255,255,0)" font-size="4" font-family="Verdana" >0|0</text>
	<text x="1" y="80" fill="rgb(255,255,0)" font-size="4" font-family="Verdana" >1|0</text>
	<text x="21" y="80" fill="rgb(255,255,0)" font-size="4" font-family="Verdana" >0|1</text>
	<text x="41" y="80" fill="rgb(255,255,0)" font-size="4" font-family="Verdana" >0|2</text>
	<text x="1" y="100" fill="rgb(255,255,0)" font-size="4" font-family="Verdana" >2|0</text>
	<text x="21" y="100" fill="rgb(255,255,0)" font-size="4" font-family="Verdana" >1|1</text>
	<text x="41" y="100" fill="rgb(255,255,0)" font-size="4" font-family="Verdana" >1|2</text>
	<text x="1" y="120" fill="rgb(255,255,0)" font-size="4" font-family="Verdana" >2|1</text>
	<text x="21" y="120" fill="rgb(255,255,0)" font-size="4" font-family="Verdana" >2|2</text>
	<text x="41" y="120" fill="rgb(255,255,0)" font-size="4" font-family="Verdana" >0|0</text>
	<text x="1" y="150" fill="rgb(255,255,0)" font-size="4" font-family="Verdana" >1|0</text>
	<text x="21" y="150" fill="rgb(255,255,0)" font-size="4" font-family="Verdana" >0|1</text>
	<text x="41" y="150" fill="rgb(255,255,0)" font-size="4" font-family="Verdana" >0|2</text>
	<text x="1" y="170" fill="rgb(255,255,0)" font-size="4" font-family="Verdana" >2|0</text>
	<text x="21" y="170" fill="rgb(255,255,0)" font-size="4" font-family="Verdana" >1|1</text>
	<text x="41" y="170" fill="rgb(255,255,0)" font-size="4" font-family="Verdana" >1|2</text>
	<text x="1" y="190" fill="rgb(255,255,0)" font-size="4" font-family="Verdana" >2|1</text>
	<text x="21" y="190" fill="rgb(255,255,0)" font-size="4" font-family="Verdana" >0|0</text>
	<text x="41" y="190" fill="rgb(255,255,0)" font-size="4" font-family="Verdana" >2|2</text>
	<text x="1" y="220" fill="rgb(255,255,0)" font-size="4" font-family="Verdana" >2|0</text>
	<text x="21" y="220" fill="rgb(255,255,0)" font-size="4" font-family="Verdana" >0|1</text>
	<text x="41" y="220" fill="rgb(255,255,0)" font-size="4" font-family="Verdana" >0|2</text>
	<text x="1" y="240" fill="rgb(255,255,0)" font-size="4" font-family="Verdana" >1|0</text>
	<text x="21" y="240" fill="rgb(255,255,0)" font-size="4" font-family="Verdana" >1|1</text>
	<text x="41" y="240" fill="rgb(255,255,0)" font-size="4" font-family="Verdana" >1|2</text>
	<text x="1" y="260" fill="rgb(255,255,0)" font-size="4" font-family="Verdana" >0|0</text>
	<text x="21" y="260" fill="rgb(255,255,0)" font-size="4" font-family="Verdana" >2|1</text>
	<text x="41" y="260" fill="rgb(255,255,0)" font-size="4" font-family="Verdana" >2|2</text>
	<text x="1" y="290" fill="rgb(255,255,0)" font-size="4" font-family="Verdana" >1|0</text>
	<text x="21" y="290" fill="rgb(255,255,0)" font-size="4" font-family="Verdana" >0|1</text>
	<text x="41" y="290" fill="rgb(255,255,0)" font-size="4" font-family="Verdana" >0|2</text>
	<text x="1" y="310" fill="rgb(255,255,0)" font-size="4" font-family="Verdana" >2|0</text>
	<text x="21" y="310" fill="rgb(255,255,0)" font-size="4" font-family="Verdana" >1|1</text>
	<text x="41" y="310" fill="rgb(255,255,0)" font-size="4" font-family="Verdana" >1|2</text>
	<text x="1" y="330" fill="rgb(255,255,0)" font-size="4" font-family="Verdana" >0|0</text>
	<text x="21" y="330" fill="rgb(255,255,0)" font-size="4" font-family="Verdana" >2|1</text>
	<text x="41" y="330" fill="rgb(255,255,0)" font-size="4" font-family="Verdana" >2|2</text>
	<text x="1" y="360" fill="rgb(255,255,0)" font-size="4" font-family="Verdana" >1|0</text>
	<text x="21" y="360" fill="rgb(255,255,0)" font-size="4" font-family="Verdana" >0|1</text>
	<text x="41" y="360" fill="rgb(255,255,0)" font-size="4" font-family="Verdana" >0|2</text>
	<text x="1" y="380" fill="rgb(255,255,0)" font-size="4" font-family="Verdana" >0|0</text>
	<text x="21" y="380" fill="rgb(255,255,0)" font-size="4" font-family="Verdana" >1|1</text>
	<text x="41" y="380" fill="rgb(255,255,0)" font-size="4" font-family="Verdana" >1|2</text>
	<text x="1" y="400" fill="rgb(255,255,0)" font-size="4" font-family="Verdana" >2|0</text>
	<text x="21" y="400" fill="rgb(255,255,0)" font-size="4" font-family="Verdana" >2|1</text>
	<text x="41" y="400" fill="rgb(255,255,0)" font-size="4" font-family="Verdana" >2|2</text>
	<text x="1" y="430" fill="rgb(255,255,0)" font-size="4" font-family="Verdana" >0|0</text>
	<text x="21" y="430" fill="rgb(255,255,0)" font-size="4" font-family="Verdana" >0|1</text>
	<text x="41" y="430" fill="rgb(255,255,0)" font-size="4" font-family="Verdana" >0|2</text>
	<text x="1" y="450" fill="rgb(255,255,0)" font-size="4" font-family="Verdana" >1|0</text>
	<text x="21" y="450" fill="rgb(255,255,0)" font-size="4" font-family="Verdana" >1|1</text>
	<text x="41" y="450" fill="rgb(255,255,0)" font-size="4" font-family="Verdana" >1|2</text>
	<text x="1" y="470" fill="rgb(255,255,0)" font-size="4" font-family="Verdana" >2|0</text>
	<text x="21" y="470" fill="rgb(255,255,0)" font-size="4" font-family="Verdana" >2|1</text>
	<text x="41" y="470" fill="rgb(255,255,0)" font-size="4" font-family="Verdana" >2|2</text>
	<polygon points="0,0 0,0 0,0 0,0 " fill="transparent" stroke-width="1" stroke="rgb(255,0,0)" />
	<line x1="10" y1="10" x2="30" y2="10" stroke-width="1" stroke="rgb(255,165,0)" />
	<line x1="30" y1="10" x2="23.3333" y2="3.33333" stroke-width="1" stroke="rgb(255,165,0)" />
	<line x1="30" y1="10" x2="23.3333" y2="16.6667" stroke-width="1" stroke="rgb(255,165,0)" />
	<line x1="30" y1="10" x2="10" y2="10" stroke-width="1" stroke="rgb(255,165,0)" />
	<line x1="10" y1="10" x2="16.6667" y2="16.6667" stroke-width="1" stroke="rgb(255,165,0)" />
	<line x1="10" y1="10" x2="16.6667" y2="3.33333" stroke-width="1" stroke="rgb(255,165,0)" />
	<line x1="10" y1="30" x2="30" y2="30" stroke-width="1" stroke="rgb(255,165,0)" />
	<line x1="30" y1="30" x2="23.3333" y2="23.3333" stroke-width="1" stroke="rgb(255,165,0)" />
	<line x1="30" y1="30" x2="23.3333" y2="36.6667" stroke-width="1" stroke="rgb(255,165,0)" />
	<line x1="30" y1="30" x2="10" y2="30" stroke-width="1" stroke="rgb(255,165,0)" />
	<line x1="10" y1="30" x2="16.6667" y2="36.6667" stroke-width="1" stroke="rgb(255,165,0)" />
	<line x1="10" y1="30" x2="16.6667" y2="23.3333" stroke-width="1" stroke="rgb(255,165,0)" />
	<line x1="10" y1="50" x2="30" y2="50" stroke-width="1" stroke="rgb(255,165,0)" />
	<line x1="30" y1="50" x2="23.3333" y2="43.3333" stroke-width="1" stroke="rgb(255,165,0)" />
	<line x1="30" y1="50" x2="23.3333" y2="56.6667" stroke-width="1" stroke="rgb(255,165,0)" />
	<line x1="30" y1="50" x2="10" y2="50" stroke-width="1" stroke="rgb(255,165,0)" />
	<line x1="10" y1="50" x2="16.6667" y2="56.6667" stroke-width="1" stroke="rgb(255,165,0)" />
	<line x1="10" y1="50" x2="16.6667" y2="43.3333" stroke-width="1" stroke="rgb(255,165,0)" />
	<line x1="30" y1="120" x2="50" y2="120" stroke-width="1" stroke="rgb(255,165,0)" />
	<line x1="50" y1="120" x2="43.3333" y2="113.333" stroke-width="1" stroke="rgb(255,165,0)" />
	<line x1="50" y1="120" x2="43.3333" y2="126.667" stroke-width="1" stroke="rgb(255,165,0)" />
	<line x1="50" y1="120" x2="30" y2="120" stroke-width="1" stroke="rgb(255,165,0)" />
	<line x1="30" y1="120" x2="36.6667" y2="126.667" stroke-width="1" stroke="rgb(255,165,0)" />
	<line x1="30" y1="120" x2="36.6667" y2="113.333" stroke-width="1" stroke="rgb(255,165,0)" />
	<line x1="10" y1="150" x2="10" y2="170" stroke-width="1" stroke="rgb(255,165,0)" />
	<line x1="10" y1="170" x2="3.33333" y2="163.333" stroke-width="1" stroke="rgb(255,165,0)" />
	<line x1="10" y1="170" x2="16.6667" y2="163.333" stroke-width="1" stroke="rgb(255,165,0)" />
	<line x1="10" y1="170" x2="10" y2="150" stroke-width="1" stroke="rgb(255,165,0)" />
	<line x1="10" y1="150" x2="16.6667" y2="156.667" stroke-width="1" stroke="rgb(255,165,0)" />
	<line x1="10" y1="150" x2="3.33333" y2="156.667" stroke-width="1" stroke="rgb(255,165,0)" />
	<line x1="10" y1="190" x2="30" y2="190" stroke-width="1" stroke="rgb(255,165,0)" />
	<line x1="30" y1="190" x2="23.3333" y2="183.333" stroke-width="1" stroke="rgb(255,165,0)" />
	<line x1="30" y1="190" x2="23.3333" y2="196.667" stroke-width="1" stroke="rgb(255,165,0)" />
	<line x1="30" y1="190" x2="10" y2="190" stroke-width="1" stroke="rgb(255,165,0)" />
	<line x1="10" y1="190" x2="16.6667" y2="196.667" stroke-width="1" stroke="rgb(255,165,0)" />
	<line x1="10" y1="190" x2="16.6667" y2="183.333" stroke-width="1" stroke="rgb(255,165,0)" />
	<line x1="10" y1="220" x2="10" y2="240" stroke-width="1" stroke="rgb(255,165,0)" />
	<line x1="10" y1="240" x2="3.33333" y2="233.333" stroke-width="1" stroke="rgb(255,165,0)" />
	<line x1="10" y1="240" x2="16.6667" y2="233.333" stroke-width="1" stroke="rgb(255,165,0)" />
	<line x1="10" y1="240" x2="10" y2="220" stroke-width="1" stroke="rgb(255,165,0)" />
	<line x1="10" y1="220" x2="16.6667" y2="226.667" stroke-width="1" stroke="rgb(255,165,0)" />
	<line x1="10" y1="220" x2="3.33333" y2="226.667" stroke-width="1" stroke="rgb(255,165,0)" />
	<line x1="10" y1="310" x2="10" y2="330" stroke-width="1" stroke="rgb(255,165,0)" />
	<line x1="10" y1="330" x2="3.33333" y2="323.333" stroke-width="1" stroke="rgb(255,165,0)" />
	<line x1="10" y1="330" x2="16.6667" y2="323.333" stroke-width="1" stroke="rgb(255,165,0)" />
	<line x1="10" y1="330" x2="10" y2="310" stroke-width="1" stroke="rgb(255,165,0)" />
	<line x1="10" y1="310" x2="16.6667" y2="316.667" stroke-width="1" stroke="rgb(255,165,0)" />
	<line x1="10" y1="310" x2="3.33333" y2="316.667" stroke-width="1" stroke="rgb(255,165,0)" />
	<line x1="10" y1="360" x2="10" y2="380" stroke-width="1" stroke="rgb(255,165,0)" />
	<line x1="10" y1="380" x2="3.33333" y2="373.333" stroke-width="1" stroke="rgb(255,165,0)" />
	<line x1="10" y1="380" x2="16.6667" y2="373.333" stroke-width="1" stroke="rgb(255,165,0)" />
	<line x1="10" y1="380" x2="10" y2="360" stroke-width="1" stroke="rgb(255,165,0)" />
	<line x1="10" y1="360" x2="16.6667" y2="366.667" stroke-width="1" stroke="rgb(255,165,0)" />
	<line x1="10" y1="360" x2="3.33333" y2="366.667" stroke-width="1" stroke="rgb(255,165,0)" />
</svg>
