<?xml version="1.0" standalone="no" ?>
<!DOCTYPE svg PUBLIC "-//W3C//DTD SVG 1.1//EN" "http://www.w3.org/Graphics/SVG/1.1/DTD/svg11.dtd">
<svg width="144px" height="72px" xmlns="http://www.w3.org/2000/svg" version="1.1" >
	<polygon points="0,0 144,0 144,72 0,72 " fill="transparent" stroke-width="1" stroke="rgb(255,0,0)" />
	<rect x="9" y="0" width="3" height="12" fill="rgb(0,0,0)" stroke-width="0.5" stroke="rgb(0,0,0)" />
	<rect x="3" y="6" width="6" height="6" fill="rgb(0,0,0)" stroke-width="0.5" stroke="rgb(0,0,0)" />
	<rect x="0" y="0" width="3" height="12" fill="rgb(0,0,0)" stroke-width="0.5" stroke="rgb(0,0,0)" />
	<rect x="3" y="0" width="6" height="6" fill="rgb(0,0,0)" stroke-width="0.5" stroke="rgb(0,0,0)" />
	<rect x="21" y="0" width="3" height="12" fill="rgb(0,0,0)" stroke-width="0.5" stroke="rgb(0,0,0)" />
	<rect x="15" y="6" width="6" height="6" fill="rgb(0,0,0)" stroke-width="0.5" stroke="rgb(0,0,0)" />
	<rect x="12" y="0" width="3" height="12" fill="rgb(0,0,0)" stroke-width="0.5" stroke="rgb(0,0,0)" />
	<rect x="15" y="0" width="6" height="6" fill="rgb(0,0,0)" stroke-width="0.5" stroke="rgb(0,0,0)" />
	<rect x="33" y="0" width="3" height="12" fill="rgb(0,0,0)" stroke-width="0.5" stroke="rgb(0,0,0)" />
	<rect x="27" y="6" width="6" height="6" fill="rgb(0,0,0)" stroke-width="0.5" stroke="rgb(0,0,0)" />
	<rect x="24" y="0" width="3" height="12" fill="rgb(0,0,0)" stroke-width="0.5" stroke="rgb(0,0,0)" />
	<rect x="27" y="0" width="6" height="6" fill="rgb(0,0,0)" stroke-width="0.5" stroke="rgb(0,0,0)" />
	<rect x="45" y="0" width="3" height="12" fill="rgb(0,0,0)" stroke-width="0.5" stroke="rgb(0,0,0)" />
	<rect x="39" y="6" width="6" height="6" fill="rgb(0,0,0)" stroke-width="0.5" stroke="rgb(0,0,0)" />
	<rect x="36" y="0" width="3" height="12" fill="rgb(0,0,0)" stroke-width="0.5" stroke="rgb(0,0,0)" />
	<rect x="39" y="0" width="6" height="6" fill="rgb(0,0,0)" stroke-width="0.5" stroke="rgb(0,0,0)" />
	<rect x="57" y="0" width="3" height="12" fill="rgb(0,0,0)" stroke-width="0.5" stroke="rgb(0,0,0)" />
	<rect x="51" y="6" width="6" height="6" fill="rgb(0,0,0)" stroke-width="0.5" stroke="rgb(0,0,0)" />
	<rect x="48" y="0" width="3" height="12" fill="rgb(0,0,0)" stroke-width="0.5" stroke="rgb(0,0,0)" />
	<rect x="51" y="0" width="6" height="6" fill="rgb(0,0,0)" stroke-width="0.5" stroke="rgb(0,0,0)" />
	<rect x="69" y="0" width="3" height="12" fill="rgb(0,0,0)" stroke-width="0.5" stroke="rgb(0,0,0)" />
	<rect x="63" y="6" width="6" height="6" fill="rgb(0,0,0)" stroke-width="0.5" stroke="rgb(0,0,0)" />
	<rect x="60" y="0" width="3" height="12" fill="rgb(0,0,0)" stroke-width="0.5" stroke="rgb(0,0,0)" />
	<rect x="63" y="0" width="6" height="6" fill="rgb(0,0,0)" stroke-width="0.5" stroke="rgb(0,0,0)" />
	<rect x="81" y="0" width="3" height="12" fill="rgb(0,0,0)" stroke-width="0.5" stroke="rgb(0,0,0)" />
	<rect x="75" y="6" width="6" height="6" fill="rgb(0,0,0)" stroke-width="0.5" stroke="rgb(0,0,0)" />
	<rect x="72" y="0" width="3" height="12" fill="rgb(0,0,0)" stroke-width="0.5" stroke="rgb(0,0,0)" />
	<rect x="75" y="0" width="6" height="6" fill="rgb(0,0,0)" stroke-width="0.5" stroke="rgb(0,0,0)" />
	<rect x="93" y="0" width="3" height="12" fill="rgb(0,0,0)" stroke-width="0.5" stroke="rgb(0,0,0)" />
	<rect x="87" y="6" width="6" height="6" fill="rgb(0,0,0)" stroke-width="0.5" stroke="rgb(0,0,0)" />
	<rect x="84" y="0" width="3" height="12" fill="rgb(0,0,0)" stroke-width="0.5" stroke="rgb(0,0,0)" />
	<rect x="87" y="0" width="6" height="6" fill="rgb(0,0,0)" stroke-width="0.5" stroke="rgb(0,0,0)" />
	<rect x="105" y="0" width="3" height="12" fill="rgb(0,0,0)" stroke-width="0.5" stroke="rgb(0,0,0)" />
	<rect x="99" y="6" width="6" height="6" fill="rgb(0,0,0)" stroke-width="0.5" stroke="rgb(0,0,0)" />
	<rect x="96" y="0" width="3" height="12" fill="rgb(0,0,0)" stroke-width="0.5" stroke="rgb(0,0,0)" />
	<rect x="99" y="0" width="6" height="6" fill="rgb(0,0,0)" stroke-width="0.5" stroke="rgb(0,0,0)" />
	<rect x="117" y="0" width="3" height="12" fill="rgb(0,0,0)" stroke-width="0.5" stroke="rgb(0,0,0)" />
	<rect x="111" y="6" width="6" height="6" fill="rgb(0,0,0)" stroke-width="0.5" stroke="rgb(0,0,0)" />
	<rect x="108" y="0" width="3" height="12" fill="rgb(0,0,0)" stroke-width="0.5" stroke="rgb(0,0,0)" />
	<rect x="111" y="0" width="6" height="6" fill="rgb(0,0,0)" stroke-width="0.5" stroke="rgb(0,0,0)" />
	<rect x="129" y="0" width="3" height="12" fill="rgb(0,0,0)" stroke-width="0.5" stroke="rgb(0,0,0)" />
	<rect x="123" y="6" width="6" height="6" fill="rgb(0,0,0)" stroke-width="0.5" stroke="rgb(0,0,0)" />
	<rect x="120" y="0" width="3" height="12" fill="rgb(0,0,0)" stroke-width="0.5" stroke="rgb(0,0,0)" />
	<rect x="123" y="0" width="6" height="6" fill="rgb(0,0,0)" stroke-width="0.5" stroke="rgb(0,0,0)" />
	<rect x="141" y="0" width="3" height="12" fill="rgb(0,0,0)" stroke-width="0.5" stroke="rgb(0,0,0)" />
	<rect x="135" y="6" width="6" height="6" fill="rgb(0,0,0)" stroke-width="0.5" stroke="rgb(0,0,0)" />
	<rect x="132" y="0" width="3" height="12" fill="rgb(0,0,0)" stroke-width="0.5" stroke="rgb(0,0,0)" />
	<rect x="135" y="0" width="6" height="6" fill="rgb(0,0,0)" stroke-width="0.5" stroke="rgb(0,0,0)" />
	<rect x="9" y="12" width="3" height="12" fill="rgb(0,0,0)" stroke-width="0.5" stroke="rgb(0,0,0)" />
	<rect x="3" y="18" width="6" height="6" fill="rgb(0,0,0)" stroke-width="0.5" stroke="rgb(0,0,0)" />
	<rect x="0" y="12" width="3" height="12" fill="rgb(0,0,0)" stroke-width="0.5" stroke="rgb(0,0,0)" />
	<rect x="3" y="12" width="6" height="6" fill="rgb(0,0,0)" stroke-width="0.5" stroke="rgb(0,0,0)" />
	<rect x="21" y="12" width="3" height="12" fill="rgb(255,0,0)" stroke-width="0.5" stroke="rgb(0,0,0)" />
	<rect x="15" y="18" width="6" height="6" fill="rgb(255,0,0)" stroke-width="0.5" stroke="rgb(0,0,0)" />
	<rect x="12" y="12" width="3" height="12" fill="rgb(128,0,128)" stroke-width="0.5" stroke="rgb(0,0,0)" />
	<rect x="15" y="12" width="6" height="6" fill="rgb(128,0,128)" stroke-width="0.5" stroke="rgb(0,0,0)" />
	<rect x="33" y="12" width="3" height="12" fill="rgb(255,0,0)" stroke-width="0.5" stroke="rgb(0,0,0)" />
	<rect x="27" y="18" width="6" height="6" fill="rgb(255,255,0)" stroke-width="0.5" stroke="rgb(0,0,0)" />
	<rect x="24" y="12" width="3" height="12" fill="rgb(255,0,0)" stroke-width="0.5" stroke="rgb(0,0,0)" />
	<rect x="27" y="12" width="6" height="6" fill="rgb(128,0,128)" stroke-width="0.5" stroke="rgb(0,0,0)" />
	<rect x="45" y="12" width="3" height="12" fill="rgb(255,0,0)" stroke-width="0.5" stroke="rgb(0,0,0)" />
	<rect x="39" y="18" width="6" height="6" fill="rgb(255,255,0)" stroke-width="0.5" stroke="rgb(0,0,0)" />
	<rect x="36" y="12" width="3" height="12" fill="rgb(255,0,0)" stroke-width="0.5" stroke="rgb(0,0,0)" />
	<rect x="39" y="12" width="6" height="6" fill="rgb(128,0,128)" stroke-width="0.5" stroke="rgb(0,0,0)" />
	<rect x="57" y="12" width="3" height="12" fill="rgb(255,0,0)" stroke-width="0.5" stroke="rgb(0,0,0)" />
	<rect x="51" y="18" width="6" height="6" fill="rgb(255,255,0)" stroke-width="0.5" stroke="rgb(0,0,0)" />
	<rect x="48" y="12" width="3" height="12" fill="rgb(255,0,0)" stroke-width="0.5" stroke="rgb(0,0,0)" />
	<rect x="51" y="12" width="6" height="6" fill="rgb(128,0,128)" stroke-width="0.5" stroke="rgb(0,0,0)" />
	<rect x="69" y="12" width="3" height="12" fill="rgb(255,0,0)" stroke-width="0.5" stroke="rgb(0,0,0)" />
	<rect x="63" y="18" width="6" height="6" fill="rgb(255,255,0)" stroke-width="0.5" stroke="rgb(0,0,0)" />
	<rect x="60" y="12" width="3" height="12" fill="rgb(255,0,0)" stroke-width="0.5" stroke="rgb(0,0,0)" />
	<rect x="63" y="12" width="6" height="6" fill="rgb(128,0,128)" stroke-width="0.5" stroke="rgb(0,0,0)" />
	<rect x="81" y="12" width="3" height="12" fill="rgb(255,0,0)" stroke-width="0.5" stroke="rgb(0,0,0)" />
	<rect x="75" y="18" width="6" height="6" fill="rgb(255,255,0)" stroke-width="0.5" stroke="rgb(0,0,0)" />
	<rect x="72" y="12" width="3" height="12" fill="rgb(255,0,0)" stroke-width="0.5" stroke="rgb(0,0,0)" />
	<rect x="75" y="12" width="6" height="6" fill="rgb(128,0,128)" stroke-width="0.5" stroke="rgb(0,0,0)" />
	<rect x="93" y="12" width="3" height="12" fill="rgb(255,0,0)" stroke-width="0.5" stroke="rgb(0,0,0)" />
	<rect x="87" y="18" width="6" height="6" fill="rgb(255,255,0)" stroke-width="0.5" stroke="rgb(0,0,0)" />
	<rect x="84" y="12" width="3" height="12" fill="rgb(255,0,0)" stroke-width="0.5" stroke="rgb(0,0,0)" />
	<rect x="87" y="12" width="6" height="6" fill="rgb(128,0,128)" stroke-width="0.5" stroke="rgb(0,0,0)" />
	<rect x="105" y="12" width="3" height="12" fill="rgb(255,0,0)" stroke-width="0.5" stroke="rgb(0,0,0)" />
	<rect x="99" y="18" width="6" height="6" fill="rgb(255,255,0)" stroke-width="0.5" stroke="rgb(0,0,0)" />
	<rect x="96" y="12" width="3" height="12" fill="rgb(255,0,0)" stroke-width="0.5" stroke="rgb(0,0,0)" />
	<rect x="99" y="12" width="6" height="6" fill="rgb(128,0,128)" stroke-width="0.5" stroke="rgb(0,0,0)" />
	<rect x="117" y="12" width="3" height="12" fill="rgb(255,0,0)" stroke-width="0.5" stroke="rgb(0,0,0)" />
	<rect x="111" y="18" width="6" height="6" fill="rgb(255,0,0)" stroke-width="0.5" stroke="rgb(0,0,0)" />
	<rect x="108" y="12" width="3" height="12" fill="rgb(255,0,0)" stroke-width="0.5" stroke="rgb(0,0,0)" />
	<rect x="111" y="12" width="6" height="6" fill="rgb(128,0,128)" stroke-width="0.5" stroke="rgb(0,0,0)" />
	<rect x="129" y="12" width="3" height="12" fill="rgb(128,0,128)" stroke-width="0.5" stroke="rgb(0,0,0)" />
	<rect x="123" y="18" width="6" height="6" fill="rgb(255,0,0)" stroke-width="0.5" stroke="rgb(0,0,0)" />
	<rect x="120" y="12" width="3" height="12" fill="rgb(255,0,0)" stroke-width="0.5" stroke="rgb(0,0,0)" />
	<rect x="123" y="12" width="6" height="6" fill="rgb(128,0,128)" stroke-width="0.5" stroke="rgb(0,0,0)" />
	<rect x="141" y="12" width="3" height="12" fill="rgb(0,0,0)" stroke-width="0.5" stroke="rgb(0,0,0)" />
	<rect x="135" y="18" width="6" height="6" fill="rgb(0,0,0)" stroke-width="0.5" stroke="rgb(0,0,0)" />
	<rect x="132" y="12" width="3" height="12" fill="rgb(0,0,0)" stroke-width="0.5" stroke="rgb(0,0,0)" />
	<rect x="135" y="12" width="6" height="6" fill="rgb(0,0,0)" stroke-width="0.5" stroke="rgb(0,0,0)" />
	<rect x="9" y="24" width="3" height="12" fill="rgb(0,0,0)" stroke-width="0.5" stroke="rgb(0,0,0)" />
	<rect x="3" y="30" width="6" height="6" fill="rgb(0,0,0)" stroke-width="0.5" stroke="rgb(0,0,0)" />
	<rect x="0" y="24" width="3" height="12" fill="rgb(0,0,0)" stroke-width="0.5" stroke="rgb(0,0,0)" />
	<rect x="3" y="24" width="6" height="6" fill="rgb(0,0,0)" stroke-width="0.5" stroke="rgb(0,0,0)" />
	<rect x="21" y="24" width="3" height="12" fill="rgb(255,255,0)" stroke-width="0.5" stroke="rgb(0,0,0)" />
	<rect x="15" y="30" width="6" height="6" fill="rgb(255,0,0)" stroke-width="0.5" stroke="rgb(0,0,0)" />
	<rect x="12" y="24" width="3" height="12" fill="rgb(128,0,128)" stroke-width="0.5" stroke="rgb(0,0,0)" />
	<rect x="15" y="24" width="6" height="6" fill="rgb(255,0,0)" stroke-width="0.5" stroke="rgb(0,0,0)" />
	<rect x="33" y="24" width="3" height="12" fill="rgb(0,128,0)" stroke-width="0.5" stroke="rgb(0,0,0)" />
	<rect x="27" y="30" width="6" height="6" fill="rgb(0,128,0)" stroke-width="0.5" stroke="rgb(0,0,0)" />
	<rect x="24" y="24" width="3" height="12" fill="rgb(0,128,0)" stroke-width="0.5" stroke="rgb(0,0,0)" />
	<rect x="27" y="24" width="6" height="6" fill="rgb(0,128,0)" stroke-width="0.5" stroke="rgb(0,0,0)" />
	<rect x="45" y="24" width="3" height="12" fill="rgb(255,255,0)" stroke-width="0.5" stroke="rgb(0,0,0)" />
	<rect x="39" y="30" width="6" height="6" fill="rgb(255,255,0)" stroke-width="0.5" stroke="rgb(0,0,0)" />
	<rect x="36" y="24" width="3" height="12" fill="rgb(255,255,0)" stroke-width="0.5" stroke="rgb(0,0,0)" />
	<rect x="39" y="24" width="6" height="6" fill="rgb(255,165,0)" stroke-width="0.5" stroke="rgb(0,0,0)" />
	<rect x="57" y="24" width="3" height="12" fill="rgb(0,128,0)" stroke-width="0.5" stroke="rgb(0,0,0)" />
	<rect x="51" y="30" width="6" height="6" fill="rgb(0,128,0)" stroke-width="0.5" stroke="rgb(0,0,0)" />
	<rect x="48" y="24" width="3" height="12" fill="rgb(0,128,0)" stroke-width="0.5" stroke="rgb(0,0,0)" />
	<rect x="51" y="24" width="6" height="6" fill="rgb(0,128,0)" stroke-width="0.5" stroke="rgb(0,0,0)" />
	<rect x="69" y="24" width="3" height="12" fill="rgb(0,128,0)" stroke-width="0.5" stroke="rgb(0,0,0)" />
	<rect x="63" y="30" width="6" height="6" fill="rgb(0,128,0)" stroke-width="0.5" stroke="rgb(0,0,0)" />
	<rect x="60" y="24" width="3" height="12" fill="rgb(0,128,0)" stroke-width="0.5" stroke="rgb(0,0,0)" />
	<rect x="63" y="24" width="6" height="6" fill="rgb(0,128,0)" stroke-width="0.5" stroke="rgb(0,0,0)" />
	<rect x="81" y="24" width="3" height="12" fill="rgb(0,128,0)" stroke-width="0.5" stroke="rgb(0,0,0)" />
	<rect x="75" y="30" width="6" height="6" fill="rgb(0,128,0)" stroke-width="0.5" stroke="rgb(0,0,0)" />
	<rect x="72" y="24" width="3" height="12" fill="rgb(0,128,0)" stroke-width="0.5" stroke="rgb(0,0,0)" />
	<rect x="75" y="24" width="6" height="6" fill="rgb(0,128,0)" stroke-width="0.5" stroke="rgb(0,0,0)" />
	<rect x="93" y="24" width="3" height="12" fill="rgb(255,255,0)" stroke-width="0.5" stroke="rgb(0,0,0)" />
	<rect x="87" y="30" width="6" height="6" fill="rgb(255,255,0)" stroke-width="0.5" stroke="rgb(0,0,0)" />
	<rect x="84" y="24" width="3" height="12" fill="rgb(255,255,0)" stroke-width="0.5" stroke="rgb(0,0,0)" />
	<rect x="87" y="24" width="6" height="6" fill="rgb(255,165,0)" stroke-width="0.5" stroke="rgb(0,0,0)" />
	<rect x="105" y="24" width="3" height="12" fill="rgb(0,128,0)" stroke-width="0.5" stroke="rgb(0,0,0)" />
	<rect x="99" y="30" width="6" height="6" fill="rgb(0,128,0)" stroke-width="0.5" stroke="rgb(0,0,0)" />
	<rect x="96" y="24" width="3" height="12" fill="rgb(0,128,0)" stroke-width="0.5" stroke="rgb(0,0,0)" />
	<rect x="99" y="24" width="6" height="6" fill="rgb(0,128,0)" stroke-width="0.5" stroke="rgb(0,0,0)" />
	<rect x="117" y="24" width="3" height="12" fill="rgb(255,165,0)" stroke-width="0.5" stroke="rgb(0,0,0)" />
	<rect x="111" y="30" width="6" height="6" fill="rgb(255,0,0)" stroke-width="0.5" stroke="rgb(0,0,0)" />
	<rect x="108" y="24" width="3" height="12" fill="rgb(255,255,0)" stroke-width="0.5" stroke="rgb(0,0,0)" />
	<rect x="111" y="24" width="6" height="6" fill="rgb(255,0,0)" stroke-width="0.5" stroke="rgb(0,0,0)" />
	<rect x="129" y="24" width="3" height="12" fill="rgb(128,0,128)" stroke-width="0.5" stroke="rgb(0,0,0)" />
	<rect x="123" y="30" width="6" height="6" fill="rgb(255,0,0)" stroke-width="0.5" stroke="rgb(0,0,0)" />
	<rect x="120" y="24" width="3" height="12" fill="rgb(255,255,0)" stroke-width="0.5" stroke="rgb(0,0,0)" />
	<rect x="123" y="24" width="6" height="6" fill="rgb(255,0,0)" stroke-width="0.5" stroke="rgb(0,0,0)" />
	<rect x="141" y="24" width="3" height="12" fill="rgb(0,0,0)" stroke-width="0.5" stroke="rgb(0,0,0)" />
	<rect x="135" y="30" width="6" height="6" fill="rgb(0,0,0)" stroke-width="0.5" stroke="rgb(0,0,0)" />
	<rect x="132" y="24" width="3" height="12" fill="rgb(0,0,0)" stroke-width="0.5" stroke="rgb(0,0,0)" />
	<rect x="135" y="24" width="6" height="6" fill="rgb(0,0,0)" stroke-width="0.5" stroke="rgb(0,0,0)" />
	<rect x="9" y="36" width="3" height="12" fill="rgb(0,0,0)" stroke-width="0.5" stroke="rgb(0,0,0)" />
	<rect x="3" y="42" width="6" height="6" fill="rgb(0,0,0)" stroke-width="0.5" stroke="rgb(0,0,0)" />
	<rect x="0" y="36" width="3" height="12" fill="rgb(0,0,0)" stroke-width="0.5" stroke="rgb(0,0,0)" />
	<rect x="3" y="36" width="6" height="6" fill="rgb(0,0,0)" stroke-width="0.5" stroke="rgb(0,0,0)" />
	<rect x="21" y="36" width="3" height="12" fill="rgb(255,255,0)" stroke-width="0.5" stroke="rgb(0,0,0)" />
	<rect x="15" y="42" width="6" height="6" fill="rgb(255,0,0)" stroke-width="0.5" stroke="rgb(0,0,0)" />
	<rect x="12" y="36" width="3" height="12" fill="rgb(128,0,128)" stroke-width="0.5" stroke="rgb(0,0,0)" />
	<rect x="15" y="36" width="6" height="6" fill="rgb(255,0,0)" stroke-width="0.5" stroke="rgb(0,0,0)" />
	<rect x="33" y="36" width="3" height="12" fill="rgb(0,128,0)" stroke-width="0.5" stroke="rgb(0,0,0)" />
	<rect x="27" y="42" width="6" height="6" fill="rgb(0,128,0)" stroke-width="0.5" stroke="rgb(0,0,0)" />
	<rect x="24" y="36" width="3" height="12" fill="rgb(0,128,0)" stroke-width="0.5" stroke="rgb(0,0,0)" />
	<rect x="27" y="36" width="6" height="6" fill="rgb(0,128,0)" stroke-width="0.5" stroke="rgb(0,0,0)" />
	<rect x="45" y="36" width="3" height="12" fill="rgb(0,128,0)" stroke-width="0.5" stroke="rgb(0,0,0)" />
	<rect x="39" y="42" width="6" height="6" fill="rgb(0,128,0)" stroke-width="0.5" stroke="rgb(0,0,0)" />
	<rect x="36" y="36" width="3" height="12" fill="rgb(0,128,0)" stroke-width="0.5" stroke="rgb(0,0,0)" />
	<rect x="39" y="36" width="6" height="6" fill="rgb(0,128,0)" stroke-width="0.5" stroke="rgb(0,0,0)" />
	<rect x="57" y="36" width="3" height="12" fill="rgb(0,128,0)" stroke-width="0.5" stroke="rgb(0,0,0)" />
	<rect x="51" y="42" width="6" height="6" fill="rgb(0,128,0)" stroke-width="0.5" stroke="rgb(0,0,0)" />
	<rect x="48" y="36" width="3" height="12" fill="rgb(0,128,0)" stroke-width="0.5" stroke="rgb(0,0,0)" />
	<rect x="51" y="36" width="6" height="6" fill="rgb(0,128,0)" stroke-width="0.5" stroke="rgb(0,0,0)" />
	<rect x="69" y="36" width="3" height="12" fill="rgb(255,255,0)" stroke-width="0.5" stroke="rgb(0,0,0)" />
	<rect x="63" y="42" width="6" height="6" fill="rgb(255,165,0)" stroke-width="0.5" stroke="rgb(0,0,0)" />
	<rect x="60" y="36" width="3" height="12" fill="rgb(255,255,0)" stroke-width="0.5" stroke="rgb(0,0,0)" />
	<rect x="63" y="36" width="6" height="6" fill="rgb(255,255,0)" stroke-width="0.5" stroke="rgb(0,0,0)" />
	<rect x="81" y="36" width="3" height="12" fill="rgb(0,128,0)" stroke-width="0.5" stroke="rgb(0,0,0)" />
	<rect x="75" y="42" width="6" height="6" fill="rgb(0,128,0)" stroke-width="0.5" stroke="rgb(0,0,0)" />
	<rect x="72" y="36" width="3" height="12" fill="rgb(0,128,0)" stroke-width="0.5" stroke="rgb(0,0,0)" />
	<rect x="75" y="36" width="6" height="6" fill="rgb(0,128,0)" stroke-width="0.5" stroke="rgb(0,0,0)" />
	<rect x="93" y="36" width="3" height="12" fill="rgb(0,128,0)" stroke-width="0.5" stroke="rgb(0,0,0)" />
	<rect x="87" y="42" width="6" height="6" fill="rgb(0,128,0)" stroke-width="0.5" stroke="rgb(0,0,0)" />
	<rect x="84" y="36" width="3" height="12" fill="rgb(0,128,0)" stroke-width="0.5" stroke="rgb(0,0,0)" />
	<rect x="87" y="36" width="6" height="6" fill="rgb(0,128,0)" stroke-width="0.5" stroke="rgb(0,0,0)" />
	<rect x="105" y="36" width="3" height="12" fill="rgb(0,128,0)" stroke-width="0.5" stroke="rgb(0,0,0)" />
	<rect x="99" y="42" width="6" height="6" fill="rgb(0,128,0)" stroke-width="0.5" stroke="rgb(0,0,0)" />
	<rect x="96" y="36" width="3" height="12" fill="rgb(0,128,0)" stroke-width="0.5" stroke="rgb(0,0,0)" />
	<rect x="99" y="36" width="6" height="6" fill="rgb(0,128,0)" stroke-width="0.5" stroke="rgb(0,0,0)" />
	<rect x="117" y="36" width="3" height="12" fill="rgb(255,165,0)" stroke-width="0.5" stroke="rgb(0,0,0)" />
	<rect x="111" y="42" width="6" height="6" fill="rgb(255,0,0)" stroke-width="0.5" stroke="rgb(0,0,0)" />
	<rect x="108" y="36" width="3" height="12" fill="rgb(255,255,0)" stroke-width="0.5" stroke="rgb(0,0,0)" />
	<rect x="111" y="36" width="6" height="6" fill="rgb(255,0,0)" stroke-width="0.5" stroke="rgb(0,0,0)" />
	<rect x="129" y="36" width="3" height="12" fill="rgb(128,0,128)" stroke-width="0.5" stroke="rgb(0,0,0)" />
	<rect x="123" y="42" width="6" height="6" fill="rgb(255,0,0)" stroke-width="0.5" stroke="rgb(0,0,0)" />
	<rect x="120" y="36" width="3" height="12" fill="rgb(255,255,0)" stroke-width="0.5" stroke="rgb(0,0,0)" />
	<rect x="123" y="36" width="6" height="6" fill="rgb(255,0,0)" stroke-width="0.5" stroke="rgb(0,0,0)" />
	<rect x="141" y="36" width="3" height="12" fill="rgb(0,0,0)" stroke-width="0.5" stroke="rgb(0,0,0)" />
	<rect x="135" y="42" width="6" height="6" fill="rgb(0,0,0)" stroke-width="0.5" stroke="rgb(0,0,0)" />
	<rect x="132" y="36" width="3" height="12" fill="rgb(0,0,0)" stroke-width="0.5" stroke="rgb(0,0,0)" />
	<rect x="135" y="36" width="6" height="6" fill="rgb(0,0,0)" stroke-width="0.5" stroke="rgb(0,0,0)" />
	<rect x="9" y="48" width="3" height="12" fill="rgb(0,0,0)" stroke-width="0.5" stroke="rgb(0,0,0)" />
	<rect x="3" y="54" width="6" height="6" fill="rgb(0,0,0)" stroke-width="0.5" stroke="rgb(0,0,0)" />
	<rect x="0" y="48" width="3" height="12" fill="rgb(0,0,0)" stroke-width="0.5" stroke="rgb(0,0,0)" />
	<rect x="3" y="48" width="6" height="6" fill="rgb(0,0,0)" stroke-width="0.5" stroke="rgb(0,0,0)" />
	<rect x="21" y="48" width="3" height="12" fill="rgb(255,0,0)" stroke-width="0.5" stroke="rgb(0,0,0)" />
	<rect x="15" y="54" width="6" height="6" fill="rgb(128,0,128)" stroke-width="0.5" stroke="rgb(0,0,0)" />
	<rect x="12" y="48" width="3" height="12" fill="rgb(128,0,128)" stroke-width="0.5" stroke="rgb(0,0,0)" />
	<rect x="15" y="48" width="6" height="6" fill="rgb(255,0,0)" stroke-width="0.5" stroke="rgb(0,0,0)" />
	<rect x="33" y="48" width="3" height="12" fill="rgb(255,0,0)" stroke-width="0.5" stroke="rgb(0,0,0)" />
	<rect x="27" y="54" width="6" height="6" fill="rgb(128,0,128)" stroke-width="0.5" stroke="rgb(0,0,0)" />
	<rect x="24" y="48" width="3" height="12" fill="rgb(255,0,0)" stroke-width="0.5" stroke="rgb(0,0,0)" />
	<rect x="27" y="48" width="6" height="6" fill="rgb(255,255,0)" stroke-width="0.5" stroke="rgb(0,0,0)" />
	<rect x="45" y="48" width="3" height="12" fill="rgb(255,0,0)" stroke-width="0.5" stroke="rgb(0,0,0)" />
	<rect x="39" y="54" width="6" height="6" fill="rgb(128,0,128)" stroke-width="0.5" stroke="rgb(0,0,0)" />
	<rect x="36" y="48" width="3" height="12" fill="rgb(255,0,0)" stroke-width="0.5" stroke="rgb(0,0,0)" />
	<rect x="39" y="48" width="6" height="6" fill="rgb(255,255,0)" stroke-width="0.5" stroke="rgb(0,0,0)" />
	<rect x="57" y="48" width="3" height="12" fill="rgb(255,0,0)" stroke-width="0.5" stroke="rgb(0,0,0)" />
	<rect x="51" y="54" width="6" height="6" fill="rgb(128,0,128)" stroke-width="0.5" stroke="rgb(0,0,0)" />
	<rect x="48" y="48" width="3" height="12" fill="rgb(255,0,0)" stroke-width="0.5" stroke="rgb(0,0,0)" />
	<rect x="51" y="48" width="6" height="6" fill="rgb(255,255,0)" stroke-width="0.5" stroke="rgb(0,0,0)" />
	<rect x="69" y="48" width="3" height="12" fill="rgb(255,0,0)" stroke-width="0.5" stroke="rgb(0,0,0)" />
	<rect x="63" y="54" width="6" height="6" fill="rgb(128,0,128)" stroke-width="0.5" stroke="rgb(0,0,0)" />
	<rect x="60" y="48" width="3" height="12" fill="rgb(255,0,0)" stroke-width="0.5" stroke="rgb(0,0,0)" />
	<rect x="63" y="48" width="6" height="6" fill="rgb(255,255,0)" stroke-width="0.5" stroke="rgb(0,0,0)" />
	<rect x="81" y="48" width="3" height="12" fill="rgb(255,0,0)" stroke-width="0.5" stroke="rgb(0,0,0)" />
	<rect x="75" y="54" width="6" height="6" fill="rgb(128,0,128)" stroke-width="0.5" stroke="rgb(0,0,0)" />
	<rect x="72" y="48" width="3" height="12" fill="rgb(255,0,0)" stroke-width="0.5" stroke="rgb(0,0,0)" />
	<rect x="75" y="48" width="6" height="6" fill="rgb(255,255,0)" stroke-width="0.5" stroke="rgb(0,0,0)" />
	<rect x="93" y="48" width="3" height="12" fill="rgb(255,0,0)" stroke-width="0.5" stroke="rgb(0,0,0)" />
	<rect x="87" y="54" width="6" height="6" fill="rgb(128,0,128)" stroke-width="0.5" stroke="rgb(0,0,0)" />
	<rect x="84" y="48" width="3" height="12" fill="rgb(255,0,0)" stroke-width="0.5" stroke="rgb(0,0,0)" />
	<rect x="87" y="48" width="6" height="6" fill="rgb(255,255,0)" stroke-width="0.5" stroke="rgb(0,0,0)" />
	<rect x="105" y="48" width="3" height="12" fill="rgb(255,0,0)" stroke-width="0.5" stroke="rgb(0,0,0)" />
	<rect x="99" y="54" width="6" height="6" fill="rgb(128,0,128)" stroke-width="0.5" stroke="rgb(0,0,0)" />
	<rect x="96" y="48" width="3" height="12" fill="rgb(255,0,0)" stroke-width="0.5" stroke="rgb(0,0,0)" />
	<rect x="99" y="48" width="6" height="6" fill="rgb(255,255,0)" stroke-width="0.5" stroke="rgb(0,0,0)" />
	<rect x="117" y="48" width="3" height="12" fill="rgb(255,0,0)" stroke-width="0.5" stroke="rgb(0,0,0)" />
	<rect x="111" y="54" width="6" height="6" fill="rgb(128,0,128)" stroke-width="0.5" stroke="rgb(0,0,0)" />
	<rect x="108" y="48" width="3" height="12" fill="rgb(255,0,0)" stroke-width="0.5" stroke="rgb(0,0,0)" />
	<rect x="111" y="48" width="6" height="6" fill="rgb(255,0,0)" stroke-width="0.5" stroke="rgb(0,0,0)" />
	<rect x="129" y="48" width="3" height="12" fill="rgb(128,0,128)" stroke-width="0.5" stroke="rgb(0,0,0)" />
	<rect x="123" y="54" width="6" height="6" fill="rgb(128,0,128)" stroke-width="0.5" stroke="rgb(0,0,0)" />
	<rect x="120" y="48" width="3" height="12" fill="rgb(255,0,0)" stroke-width="0.5" stroke="rgb(0,0,0)" />
	<rect x="123" y="48" width="6" height="6" fill="rgb(255,0,0)" stroke-width="0.5" stroke="rgb(0,0,0)" />
	<rect x="141" y="48" width="3" height="12" fill="rgb(0,0,0)" stroke-width="0.5" stroke="rgb(0,0,0)" />
	<rect x="135" y="54" width="6" height="6" fill="rgb(0,0,0)" stroke-width="0.5" stroke="rgb(0,0,0)" />
	<rect x="132" y="48" width="3" height="12" fill="rgb(0,0,0)" stroke-width="0.5" stroke="rgb(0,0,0)" />
	<rect x="135" y="48" width="6" height="6" fill="rgb(0,0,0)" stroke-width="0.5" stroke="rgb(0,0,0)" />
	<rect x="9" y="60" width="3" height="12" fill="rgb(0,0,0)" stroke-width="0.5" stroke="rgb(0,0,0)" />
	<rect x="3" y="66" width="6" height="6" fill="rgb(0,0,0)" stroke-width="0.5" stroke="rgb(0,0,0)" />
	<rect x="0" y="60" width="3" height="12" fill="rgb(0,0,0)" stroke-width="0.5" stroke="rgb(0,0,0)" />
	<rect x="3" y="60" width="6" height="6" fill="rgb(0,0,0)" stroke-width="0.5" stroke="rgb(0,0,0)" />
	<rect x="21" y="60" width="3" height="12" fill="rgb(0,0,0)" stroke-width="0.5" stroke="rgb(0,0,0)" />
	<rect x="15" y="66" width="6" height="6" fill="rgb(0,0,0)" stroke-width="0.5" stroke="rgb(0,0,0)" />
	<rect x="12" y="60" width="3" height="12" fill="rgb(0,0,0)" stroke-width="0.5" stroke="rgb(0,0,0)" />
	<rect x="15" y="60" width="6" height="6" fill="rgb(0,0,0)" stroke-width="0.5" stroke="rgb(0,0,0)" />
	<rect x="33" y="60" width="3" height="12" fill="rgb(0,0,0)" stroke-width="0.5" stroke="rgb(0,0,0)" />
	<rect x="27" y="66" width="6" height="6" fill="rgb(0,0,0)" stroke-width="0.5" stroke="rgb(0,0,0)" />
	<rect x="24" y="60" width="3" height="12" fill="rgb(0,0,0)" stroke-width="0.5" stroke="rgb(0,0,0)" />
	<rect x="27" y="60" width="6" height="6" fill="rgb(0,0,0)" stroke-width="0.5" stroke="rgb(0,0,0)" />
	<rect x="45" y="60" width="3" height="12" fill="rgb(0,0,0)" stroke-width="0.5" stroke="rgb(0,0,0)" />
	<rect x="39" y="66" width="6" height="6" fill="rgb(0,0,0)" stroke-width="0.5" stroke="rgb(0,0,0)" />
	<rect x="36" y="60" width="3" height="12" fill="rgb(0,0,0)" stroke-width="0.5" stroke="rgb(0,0,0)" />
	<rect x="39" y="60" width="6" height="6" fill="rgb(0,0,0)" stroke-width="0.5" stroke="rgb(0,0,0)" />
	<rect x="57" y="60" width="3" height="12" fill="rgb(0,0,0)" stroke-width="0.5" stroke="rgb(0,0,0)" />
	<rect x="51" y="66" width="6" height="6" fill="rgb(0,0,0)" stroke-width="0.5" stroke="rgb(0,0,0)" />
	<rect x="48" y="60" width="3" height="12" fill="rgb(0,0,0)" stroke-width="0.5" stroke="rgb(0,0,0)" />
	<rect x="51" y="60" width="6" height="6" fill="rgb(0,0,0)" stroke-width="0.5" stroke="rgb(0,0,0)" />
	<rect x="69" y="60" width="3" height="12" fill="rgb(0,0,0)" stroke-width="0.5" stroke="rgb(0,0,0)" />
	<rect x="63" y="66" width="6" height="6" fill="rgb(0,0,0)" stroke-width="0.5" stroke="rgb(0,0,0)" />
	<rect x="60" y="60" width="3" height="12" fill="rgb(0,0,0)" stroke-width="0.5" stroke="rgb(0,0,0)" />
	<rect x="63" y="60" width="6" height="6" fill="rgb(0,0,0)" stroke-width="0.5" stroke="rgb(0,0,0)" />
	<rect x="81" y="60" width="3" height="12" fill="rgb(0,0,0)" stroke-width="0.5" stroke="rgb(0,0,0)" />
	<rect x="75" y="66" width="6" height="6" fill="rgb(0,0,0)" stroke-width="0.5" stroke="rgb(0,0,0)" />
	<rect x="72" y="60" width="3" height="12" fill="rgb(0,0,0)" stroke-width="0.5" stroke="rgb(0,0,0)" />
	<rect x="75" y="60" width="6" height="6" fill="rgb(0,0,0)" stroke-width="0.5" stroke="rgb(0,0,0)" />
	<rect x="93" y="60" width="3" height="12" fill="rgb(0,0,0)" stroke-width="0.5" stroke="rgb(0,0,0)" />
	<rect x="87" y="66" width="6" height="6" fill="rgb(0,0,0)" stroke-width="0.5" stroke="rgb(0,0,0)" />
	<rect x="84" y="60" width="3" height="12" fill="rgb(0,0,0)" stroke-width="0.5" stroke="rgb(0,0,0)" />
	<rect x="87" y="60" width="6" height="6" fill="rgb(0,0,0)" stroke-width="0.5" stroke="rgb(0,0,0)" />
	<rect x="105" y="60" width="3" height="12" fill="rgb(0,0,0)" stroke-width="0.5" stroke="rgb(0,0,0)" />
	<rect x="99" y="66" width="6" height="6" fill="rgb(0,0,0)" stroke-width="0.5" stroke="rgb(0,0,0)" />
	<rect x="96" y="60" width="3" height="12" fill="rgb(0,0,0)" stroke-width="0.5" stroke="rgb(0,0,0)" />
	<rect x="99" y="60" width="6" height="6" fill="rgb(0,0,0)" stroke-width="0.5" stroke="rgb(0,0,0)" />
	<rect x="117" y="60" width="3" height="12" fill="rgb(0,0,0)" stroke-width="0.5" stroke="rgb(0,0,0)" />
	<rect x="111" y="66" width="6" height="6" fill="rgb(0,0,0)" stroke-width="0.5" stroke="rgb(0,0,0)" />
	<rect x="108" y="60" width="3" height="12" fill="rgb(0,0,0)" stroke-width="0.5" stroke="rgb(0,0,0)" />
	<rect x="111" y="60" width="6" height="6" fill="rgb(0,0,0)" stroke-width="0.5" stroke="rgb(0,0,0)" />
	<rect x="129" y="60" width="3" height="12" fill="rgb(0,0,0)" stroke-width="0.5" stroke="rgb(0,0,0)" />
	<rect x="123" y="66" width="6" height="6" fill="rgb(0,0,0)" stroke-width="0.5" stroke="rgb(0,0,0)" />
	<rect x="120" y="60" width="3" height="12" fill="rgb(0,0,0)" stroke-width="0.5" stroke="rgb(0,0,0)" />
	<rect x="123" y="60" width="6" height="6" fill="rgb(0,0,0)" stroke-width="0.5" stroke="rgb(0,0,0)" />
	<rect x="141" y="60" width="3" height="12" fill="rgb(0,0,0)" stroke-width="0.5" stroke="rgb(0,0,0)" />
	<rect x="135" y="66" width="6" height="6" fill="rgb(0,0,0)" stroke-width="0.5" stroke="rgb(0,0,0)" />
	<rect x="132" y="60" width="3" height="12" fill="rgb(0,0,0)" stroke-width="0.5" stroke="rgb(0,0,0)" />
	<rect x="135" y="60" width="6" height="6" fill="rgb(0,0,0)" stroke-width="0.5" stroke="rgb(0,0,0)" />
</svg>
