<?xml version="1.0" standalone="no" ?>
<!DOCTYPE svg PUBLIC "-//W3C//DTD SVG 1.1//EN" "http://www.w3.org/Graphics/SVG/1.1/DTD/svg11.dtd">
<svg width="72px" height="192px" xmlns="http://www.w3.org/2000/svg" version="1.1" >
	<polygon points="0,0 72,0 72,192 0,192 " fill="transparent" stroke-width="1" stroke="rgb(255,0,0)" />
	<rect x="9" y="0" width="3" height="12" fill="rgb(0,0,0)" stroke-width="0.5" stroke="rgb(0,0,0)" />
	<rect x="3" y="6" width="6" height="6" fill="rgb(0,0,0)" stroke-width="0.5" stroke="rgb(0,0,0)" />
	<rect x="0" y="0" width="3" height="12" fill="rgb(0,0,0)" stroke-width="0.5" stroke="rgb(0,0,0)" />
	<rect x="3" y="0" width="6" height="6" fill="rgb(0,0,0)" stroke-width="0.5" stroke="rgb(0,0,0)" />
	<rect x="21" y="0" width="3" height="12" fill="rgb(0,0,0)" stroke-width="0.5" stroke="rgb(0,0,0)" />
	<rect x="15" y="6" width="6" height="6" fill="rgb(0,0,0)" stroke-width="0.5" stroke="rgb(0,0,0)" />
	<rect x="12" y="0" width="3" height="12" fill="rgb(0,0,0)" stroke-width="0.5" stroke="rgb(0,0,0)" />
	<rect x="15" y="0" width="6" height="6" fill="rgb(0,0,0)" stroke-width="0.5" stroke="rgb(0,0,0)" />
	<rect x="33" y="0" width="3" height="12" fill="rgb(0,0,0)" stroke-width="0.5" stroke="rgb(0,0,0)" />
	<rect x="27" y="6" width="6" height="6" fill="rgb(0,0,0)" stroke-width="0.5" stroke="rgb(0,0,0)" />
	<rect x="24" y="0" width="3" height="12" fill="rgb(0,0,0)" stroke-width="0.5" stroke="rgb(0,0,0)" />
	<rect x="27" y="0" width="6" height="6" fill="rgb(0,0,0)" stroke-width="0.5" stroke="rgb(0,0,0)" />
	<rect x="45" y="0" width="3" height="12" fill="rgb(0,0,0)" stroke-width="0.5" stroke="rgb(0,0,0)" />
	<rect x="39" y="6" width="6" height="6" fill="rgb(0,0,0)" stroke-width="0.5" stroke="rgb(0,0,0)" />
	<rect x="36" y="0" width="3" height="12" fill="rgb(0,0,0)" stroke-width="0.5" stroke="rgb(0,0,0)" />
	<rect x="39" y="0" width="6" height="6" fill="rgb(0,0,0)" stroke-width="0.5" stroke="rgb(0,0,0)" />
	<rect x="57" y="0" width="3" height="12" fill="rgb(0,0,0)" stroke-width="0.5" stroke="rgb(0,0,0)" />
	<rect x="51" y="6" width="6" height="6" fill="rgb(0,0,0)" stroke-width="0.5" stroke="rgb(0,0,0)" />
	<rect x="48" y="0" width="3" height="12" fill="rgb(0,0,0)" stroke-width="0.5" stroke="rgb(0,0,0)" />
	<rect x="51" y="0" width="6" height="6" fill="rgb(0,0,0)" stroke-width="0.5" stroke="rgb(0,0,0)" />
	<rect x="69" y="0" width="3" height="12" fill="rgb(0,0,0)" stroke-width="0.5" stroke="rgb(0,0,0)" />
	<rect x="63" y="6" width="6" height="6" fill="rgb(0,0,0)" stroke-width="0.5" stroke="rgb(0,0,0)" />
	<rect x="60" y="0" width="3" height="12" fill="rgb(0,0,0)" stroke-width="0.5" stroke="rgb(0,0,0)" />
	<rect x="63" y="0" width="6" height="6" fill="rgb(0,0,0)" stroke-width="0.5" stroke="rgb(0,0,0)" />
	<rect x="9" y="12" width="3" height="12" fill="rgb(0,0,0)" stroke-width="0.5" stroke="rgb(0,0,0)" />
	<rect x="3" y="18" width="6" height="6" fill="rgb(0,0,0)" stroke-width="0.5" stroke="rgb(0,0,0)" />
	<rect x="0" y="12" width="3" height="12" fill="rgb(0,0,0)" stroke-width="0.5" stroke="rgb(0,0,0)" />
	<rect x="3" y="12" width="6" height="6" fill="rgb(0,0,0)" stroke-width="0.5" stroke="rgb(0,0,0)" />
	<rect x="21" y="12" width="3" height="12" fill="rgb(0,128,0)" stroke-width="0.5" stroke="rgb(0,0,0)" />
	<rect x="15" y="18" width="6" height="6" fill="rgb(0,128,0)" stroke-width="0.5" stroke="rgb(0,0,0)" />
	<rect x="12" y="12" width="3" height="12" fill="rgb(0,128,0)" stroke-width="0.5" stroke="rgb(0,0,0)" />
	<rect x="15" y="12" width="6" height="6" fill="rgb(0,128,0)" stroke-width="0.5" stroke="rgb(0,0,0)" />
	<rect x="33" y="12" width="3" height="12" fill="rgb(0,0,0)" stroke-width="0.5" stroke="rgb(0,0,0)" />
	<rect x="27" y="18" width="6" height="6" fill="rgb(0,0,0)" stroke-width="0.5" stroke="rgb(0,0,0)" />
	<rect x="24" y="12" width="3" height="12" fill="rgb(0,0,0)" stroke-width="0.5" stroke="rgb(0,0,0)" />
	<rect x="27" y="12" width="6" height="6" fill="rgb(0,0,0)" stroke-width="0.5" stroke="rgb(0,0,0)" />
	<rect x="45" y="12" width="3" height="12" fill="rgb(0,0,0)" stroke-width="0.5" stroke="rgb(0,0,0)" />
	<rect x="39" y="18" width="6" height="6" fill="rgb(0,0,0)" stroke-width="0.5" stroke="rgb(0,0,0)" />
	<rect x="36" y="12" width="3" height="12" fill="rgb(0,0,0)" stroke-width="0.5" stroke="rgb(0,0,0)" />
	<rect x="39" y="12" width="6" height="6" fill="rgb(0,0,0)" stroke-width="0.5" stroke="rgb(0,0,0)" />
	<rect x="57" y="12" width="3" height="12" fill="rgb(128,0,128)" stroke-width="1.5" stroke="rgb(0,128,0)" />
	<rect x="51" y="18" width="6" height="6" fill="rgb(255,255,0)" stroke-width="1.5" stroke="rgb(0,128,0)" />
	<rect x="48" y="12" width="3" height="12" fill="rgb(128,0,128)" stroke-width="1.5" stroke="rgb(0,128,0)" />
	<rect x="51" y="12" width="6" height="6" fill="rgb(128,0,128)" stroke-width="1.5" stroke="rgb(0,128,0)" />
	<rect x="69" y="12" width="3" height="12" fill="rgb(0,0,0)" stroke-width="0.5" stroke="rgb(0,0,0)" />
	<rect x="63" y="18" width="6" height="6" fill="rgb(0,0,0)" stroke-width="0.5" stroke="rgb(0,0,0)" />
	<rect x="60" y="12" width="3" height="12" fill="rgb(0,0,0)" stroke-width="0.5" stroke="rgb(0,0,0)" />
	<rect x="63" y="12" width="6" height="6" fill="rgb(0,0,0)" stroke-width="0.5" stroke="rgb(0,0,0)" />
	<rect x="9" y="24" width="3" height="12" fill="rgb(0,0,0)" stroke-width="0.5" stroke="rgb(0,0,0)" />
	<rect x="3" y="30" width="6" height="6" fill="rgb(0,0,0)" stroke-width="0.5" stroke="rgb(0,0,0)" />
	<rect x="0" y="24" width="3" height="12" fill="rgb(0,0,0)" stroke-width="0.5" stroke="rgb(0,0,0)" />
	<rect x="3" y="24" width="6" height="6" fill="rgb(0,0,0)" stroke-width="0.5" stroke="rgb(0,0,0)" />
	<rect x="21" y="24" width="3" height="12" fill="rgb(255,255,0)" stroke-width="1.5" stroke="rgb(0,128,0)" />
	<rect x="15" y="30" width="6" height="6" fill="rgb(128,0,128)" stroke-width="1.5" stroke="rgb(0,128,0)" />
	<rect x="12" y="24" width="3" height="12" fill="rgb(128,0,128)" stroke-width="1.5" stroke="rgb(0,128,0)" />
	<rect x="15" y="24" width="6" height="6" fill="rgb(255,255,0)" stroke-width="1.5" stroke="rgb(0,128,0)" />
	<rect x="33" y="24" width="3" height="12" fill="rgb(255,255,0)" stroke-width="1.5" stroke="rgb(0,128,0)" />
	<rect x="27" y="30" width="6" height="6" fill="rgb(255,255,0)" stroke-width="1.5" stroke="rgb(0,128,0)" />
	<rect x="24" y="24" width="3" height="12" fill="rgb(255,255,0)" stroke-width="1.5" stroke="rgb(0,128,0)" />
	<rect x="27" y="24" width="6" height="6" fill="rgb(128,0,128)" stroke-width="1.5" stroke="rgb(0,128,0)" />
	<rect x="45" y="24" width="3" height="12" fill="rgb(255,255,0)" stroke-width="1.5" stroke="rgb(0,128,0)" />
	<rect x="39" y="30" width="6" height="6" fill="rgb(255,255,0)" stroke-width="1.5" stroke="rgb(0,128,0)" />
	<rect x="36" y="24" width="3" height="12" fill="rgb(255,255,0)" stroke-width="1.5" stroke="rgb(0,128,0)" />
	<rect x="39" y="24" width="6" height="6" fill="rgb(128,0,128)" stroke-width="1.5" stroke="rgb(0,128,0)" />
	<rect x="57" y="24" width="3" height="12" fill="rgb(128,0,128)" stroke-width="1.5" stroke="rgb(0,128,0)" />
	<rect x="51" y="30" width="6" height="6" fill="rgb(255,255,0)" stroke-width="1.5" stroke="rgb(0,128,0)" />
	<rect x="48" y="24" width="3" height="12" fill="rgb(255,255,0)" stroke-width="1.5" stroke="rgb(0,128,0)" />
	<rect x="51" y="24" width="6" height="6" fill="rgb(255,255,0)" stroke-width="1.5" stroke="rgb(0,128,0)" />
	<rect x="69" y="24" width="3" height="12" fill="rgb(0,0,0)" stroke-width="0.5" stroke="rgb(0,0,0)" />
	<rect x="63" y="30" width="6" height="6" fill="rgb(0,0,0)" stroke-width="0.5" stroke="rgb(0,0,0)" />
	<rect x="60" y="24" width="3" height="12" fill="rgb(0,0,0)" stroke-width="0.5" stroke="rgb(0,0,0)" />
	<rect x="63" y="24" width="6" height="6" fill="rgb(0,0,0)" stroke-width="0.5" stroke="rgb(0,0,0)" />
	<rect x="9" y="36" width="3" height="12" fill="rgb(0,0,0)" stroke-width="0.5" stroke="rgb(0,0,0)" />
	<rect x="3" y="42" width="6" height="6" fill="rgb(0,0,0)" stroke-width="0.5" stroke="rgb(0,0,0)" />
	<rect x="0" y="36" width="3" height="12" fill="rgb(0,0,0)" stroke-width="0.5" stroke="rgb(0,0,0)" />
	<rect x="3" y="36" width="6" height="6" fill="rgb(0,0,0)" stroke-width="0.5" stroke="rgb(0,0,0)" />
	<rect x="21" y="36" width="3" height="12" fill="rgb(0,0,0)" stroke-width="0.5" stroke="rgb(0,0,0)" />
	<rect x="15" y="42" width="6" height="6" fill="rgb(0,0,0)" stroke-width="0.5" stroke="rgb(0,0,0)" />
	<rect x="12" y="36" width="3" height="12" fill="rgb(0,0,0)" stroke-width="0.5" stroke="rgb(0,0,0)" />
	<rect x="15" y="36" width="6" height="6" fill="rgb(0,0,0)" stroke-width="0.5" stroke="rgb(0,0,0)" />
	<rect x="33" y="36" width="3" height="12" fill="rgb(255,255,0)" stroke-width="1.5" stroke="rgb(0,128,0)" />
	<rect x="27" y="42" width="6" height="6" fill="rgb(255,255,0)" stroke-width="1.5" stroke="rgb(0,128,0)" />
	<rect x="24" y="36" width="3" height="12" fill="rgb(128,0,128)" stroke-width="1.5" stroke="rgb(0,128,0)" />
	<rect x="27" y="36" width="6" height="6" fill="rgb(255,255,0)" stroke-width="1.5" stroke="rgb(0,128,0)" />
	<rect x="45" y="36" width="3" height="12" fill="rgb(255,255,0)" stroke-width="1.5" stroke="rgb(0,128,0)" />
	<rect x="39" y="42" width="6" height="6" fill="rgb(128,0,128)" stroke-width="1.5" stroke="rgb(0,128,0)" />
	<rect x="36" y="36" width="3" height="12" fill="rgb(255,255,0)" stroke-width="1.5" stroke="rgb(0,128,0)" />
	<rect x="39" y="36" width="6" height="6" fill="rgb(255,255,0)" stroke-width="1.5" stroke="rgb(0,128,0)" />
	<rect x="57" y="36" width="3" height="12" fill="rgb(128,0,128)" stroke-width="1.5" stroke="rgb(0,128,0)" />
	<rect x="51" y="42" width="6" height="6" fill="rgb(255,255,0)" stroke-width="1.5" stroke="rgb(0,128,0)" />
	<rect x="48" y="36" width="3" height="12" fill="rgb(255,255,0)" stroke-width="1.5" stroke="rgb(0,128,0)" />
	<rect x="51" y="36" width="6" height="6" fill="rgb(255,255,0)" stroke-width="1.5" stroke="rgb(0,128,0)" />
	<rect x="69" y="36" width="3" height="12" fill="rgb(0,0,0)" stroke-width="0.5" stroke="rgb(0,0,0)" />
	<rect x="63" y="42" width="6" height="6" fill="rgb(0,0,0)" stroke-width="0.5" stroke="rgb(0,0,0)" />
	<rect x="60" y="36" width="3" height="12" fill="rgb(0,0,0)" stroke-width="0.5" stroke="rgb(0,0,0)" />
	<rect x="63" y="36" width="6" height="6" fill="rgb(0,0,0)" stroke-width="0.5" stroke="rgb(0,0,0)" />
	<rect x="9" y="48" width="3" height="12" fill="rgb(0,0,0)" stroke-width="0.5" stroke="rgb(0,0,0)" />
	<rect x="3" y="54" width="6" height="6" fill="rgb(0,0,0)" stroke-width="0.5" stroke="rgb(0,0,0)" />
	<rect x="0" y="48" width="3" height="12" fill="rgb(0,0,0)" stroke-width="0.5" stroke="rgb(0,0,0)" />
	<rect x="3" y="48" width="6" height="6" fill="rgb(0,0,0)" stroke-width="0.5" stroke="rgb(0,0,0)" />
	<rect x="21" y="48" width="3" height="12" fill="rgb(255,255,0)" stroke-width="1.5" stroke="rgb(0,128,0)" />
	<rect x="15" y="54" width="6" height="6" fill="rgb(255,255,0)" stroke-width="1.5" stroke="rgb(0,128,0)" />
	<rect x="12" y="48" width="3" height="12" fill="rgb(128,0,128)" stroke-width="1.5" stroke="rgb(0,128,0)" />
	<rect x="15" y="48" width="6" height="6" fill="rgb(128,0,128)" stroke-width="1.5" stroke="rgb(0,128,0)" />
	<rect x="33" y="48" width="3" height="12" fill="rgb(128,0,128)" stroke-width="1.5" stroke="rgb(0,128,0)" />
	<rect x="27" y="54" width="6" height="6" fill="rgb(128,0,128)" stroke-width="1.5" stroke="rgb(0,128,0)" />
	<rect x="24" y="48" width="3" height="12" fill="rgb(255,255,0)" stroke-width="1.5" stroke="rgb(0,128,0)" />
	<rect x="27" y="48" width="6" height="6" fill="rgb(255,255,0)" stroke-width="1.5" stroke="rgb(0,128,0)" />
	<rect x="45" y="48" width="3" height="12" fill="rgb(0,0,0)" stroke-width="0.5" stroke="rgb(0,0,0)" />
	<rect x="39" y="54" width="6" height="6" fill="rgb(0,0,0)" stroke-width="0.5" stroke="rgb(0,0,0)" />
	<rect x="36" y="48" width="3" height="12" fill="rgb(0,0,0)" stroke-width="0.5" stroke="rgb(0,0,0)" />
	<rect x="39" y="48" width="6" height="6" fill="rgb(0,0,0)" stroke-width="0.5" stroke="rgb(0,0,0)" />
	<rect x="57" y="48" width="3" height="12" fill="rgb(128,0,128)" stroke-width="1.5" stroke="rgb(0,128,0)" />
	<rect x="51" y="54" width="6" height="6" fill="rgb(255,255,0)" stroke-width="1.5" stroke="rgb(0,128,0)" />
	<rect x="48" y="48" width="3" height="12" fill="rgb(128,0,128)" stroke-width="1.5" stroke="rgb(0,128,0)" />
	<rect x="51" y="48" width="6" height="6" fill="rgb(255,255,0)" stroke-width="1.5" stroke="rgb(0,128,0)" />
	<rect x="69" y="48" width="3" height="12" fill="rgb(0,0,0)" stroke-width="0.5" stroke="rgb(0,0,0)" />
	<rect x="63" y="54" width="6" height="6" fill="rgb(0,0,0)" stroke-width="0.5" stroke="rgb(0,0,0)" />
	<rect x="60" y="48" width="3" height="12" fill="rgb(0,0,0)" stroke-width="0.5" stroke="rgb(0,0,0)" />
	<rect x="63" y="48" width="6" height="6" fill="rgb(0,0,0)" stroke-width="0.5" stroke="rgb(0,0,0)" />
	<rect x="9" y="60" width="3" height="12" fill="rgb(0,0,0)" stroke-width="0.5" stroke="rgb(0,0,0)" />
	<rect x="3" y="66" width="6" height="6" fill="rgb(0,0,0)" stroke-width="0.5" stroke="rgb(0,0,0)" />
	<rect x="0" y="60" width="3" height="12" fill="rgb(0,0,0)" stroke-width="0.5" stroke="rgb(0,0,0)" />
	<rect x="3" y="60" width="6" height="6" fill="rgb(0,0,0)" stroke-width="0.5" stroke="rgb(0,0,0)" />
	<rect x="21" y="60" width="3" height="12" fill="rgb(128,0,128)" stroke-width="1.5" stroke="rgb(0,128,0)" />
	<rect x="15" y="66" width="6" height="6" fill="rgb(255,255,0)" stroke-width="1.5" stroke="rgb(0,128,0)" />
	<rect x="12" y="60" width="3" height="12" fill="rgb(128,0,128)" stroke-width="1.5" stroke="rgb(0,128,0)" />
	<rect x="15" y="60" width="6" height="6" fill="rgb(255,255,0)" stroke-width="1.5" stroke="rgb(0,128,0)" />
	<rect x="33" y="60" width="3" height="12" fill="rgb(0,0,0)" stroke-width="0.5" stroke="rgb(0,0,0)" />
	<rect x="27" y="66" width="6" height="6" fill="rgb(0,0,0)" stroke-width="0.5" stroke="rgb(0,0,0)" />
	<rect x="24" y="60" width="3" height="12" fill="rgb(0,0,0)" stroke-width="0.5" stroke="rgb(0,0,0)" />
	<rect x="27" y="60" width="6" height="6" fill="rgb(0,0,0)" stroke-width="0.5" stroke="rgb(0,0,0)" />
	<rect x="45" y="60" width="3" height="12" fill="rgb(255,255,0)" stroke-width="1.5" stroke="rgb(0,128,0)" />
	<rect x="39" y="66" width="6" height="6" fill="rgb(255,255,0)" stroke-width="1.5" stroke="rgb(0,128,0)" />
	<rect x="36" y="60" width="3" height="12" fill="rgb(128,0,128)" stroke-width="1.5" stroke="rgb(0,128,0)" />
	<rect x="39" y="60" width="6" height="6" fill="rgb(128,0,128)" stroke-width="1.5" stroke="rgb(0,128,0)" />
	<rect x="57" y="60" width="3" height="12" fill="rgb(128,0,128)" stroke-width="1.5" stroke="rgb(0,128,0)" />
	<rect x="51" y="66" width="6" height="6" fill="rgb(255,255,0)" stroke-width="1.5" stroke="rgb(0,128,0)" />
	<rect x="48" y="60" width="3" height="12" fill="rgb(255,255,0)" stroke-width="1.5" stroke="rgb(0,128,0)" />
	<rect x="51" y="60" width="6" height="6" fill="rgb(255,255,0)" stroke-width="1.5" stroke="rgb(0,128,0)" />
	<rect x="69" y="60" width="3" height="12" fill="rgb(0,0,0)" stroke-width="0.5" stroke="rgb(0,0,0)" />
	<rect x="63" y="66" width="6" height="6" fill="rgb(0,0,0)" stroke-width="0.5" stroke="rgb(0,0,0)" />
	<rect x="60" y="60" width="3" height="12" fill="rgb(0,0,0)" stroke-width="0.5" stroke="rgb(0,0,0)" />
	<rect x="63" y="60" width="6" height="6" fill="rgb(0,0,0)" stroke-width="0.5" stroke="rgb(0,0,0)" />
	<rect x="9" y="72" width="3" height="12" fill="rgb(0,0,0)" stroke-width="0.5" stroke="rgb(0,0,0)" />
	<rect x="3" y="78" width="6" height="6" fill="rgb(0,0,0)" stroke-width="0.5" stroke="rgb(0,0,0)" />
	<rect x="0" y="72" width="3" height="12" fill="rgb(0,0,0)" stroke-width="0.5" stroke="rgb(0,0,0)" />
	<rect x="3" y="72" width="6" height="6" fill="rgb(0,0,0)" stroke-width="0.5" stroke="rgb(0,0,0)" />
	<rect x="21" y="72" width="3" height="12" fill="rgb(255,255,0)" stroke-width="1.5" stroke="rgb(0,128,0)" />
	<rect x="15" y="78" width="6" height="6" fill="rgb(128,0,128)" stroke-width="1.5" stroke="rgb(0,128,0)" />
	<rect x="12" y="72" width="3" height="12" fill="rgb(128,0,128)" stroke-width="1.5" stroke="rgb(0,128,0)" />
	<rect x="15" y="72" width="6" height="6" fill="rgb(255,255,0)" stroke-width="1.5" stroke="rgb(0,128,0)" />
	<rect x="33" y="72" width="3" height="12" fill="rgb(255,255,0)" stroke-width="1.5" stroke="rgb(0,128,0)" />
	<rect x="27" y="78" width="6" height="6" fill="rgb(255,255,0)" stroke-width="1.5" stroke="rgb(0,128,0)" />
	<rect x="24" y="72" width="3" height="12" fill="rgb(255,255,0)" stroke-width="1.5" stroke="rgb(0,128,0)" />
	<rect x="27" y="72" width="6" height="6" fill="rgb(128,0,128)" stroke-width="1.5" stroke="rgb(0,128,0)" />
	<rect x="45" y="72" width="3" height="12" fill="rgb(255,255,0)" stroke-width="1.5" stroke="rgb(0,128,0)" />
	<rect x="39" y="78" width="6" height="6" fill="rgb(255,255,0)" stroke-width="1.5" stroke="rgb(0,128,0)" />
	<rect x="36" y="72" width="3" height="12" fill="rgb(255,255,0)" stroke-width="1.5" stroke="rgb(0,128,0)" />
	<rect x="39" y="72" width="6" height="6" fill="rgb(255,255,0)" stroke-width="1.5" stroke="rgb(0,128,0)" />
	<rect x="57" y="72" width="3" height="12" fill="rgb(128,0,128)" stroke-width="1.5" stroke="rgb(0,128,0)" />
	<rect x="51" y="78" width="6" height="6" fill="rgb(255,255,0)" stroke-width="1.5" stroke="rgb(0,128,0)" />
	<rect x="48" y="72" width="3" height="12" fill="rgb(255,255,0)" stroke-width="1.5" stroke="rgb(0,128,0)" />
	<rect x="51" y="72" width="6" height="6" fill="rgb(255,255,0)" stroke-width="1.5" stroke="rgb(0,128,0)" />
	<rect x="69" y="72" width="3" height="12" fill="rgb(0,0,0)" stroke-width="0.5" stroke="rgb(0,0,0)" />
	<rect x="63" y="78" width="6" height="6" fill="rgb(0,0,0)" stroke-width="0.5" stroke="rgb(0,0,0)" />
	<rect x="60" y="72" width="3" height="12" fill="rgb(0,0,0)" stroke-width="0.5" stroke="rgb(0,0,0)" />
	<rect x="63" y="72" width="6" height="6" fill="rgb(0,0,0)" stroke-width="0.5" stroke="rgb(0,0,0)" />
	<rect x="9" y="84" width="3" height="12" fill="rgb(0,0,0)" stroke-width="0.5" stroke="rgb(0,0,0)" />
	<rect x="3" y="90" width="6" height="6" fill="rgb(0,0,0)" stroke-width="0.5" stroke="rgb(0,0,0)" />
	<rect x="0" y="84" width="3" height="12" fill="rgb(0,0,0)" stroke-width="0.5" stroke="rgb(0,0,0)" />
	<rect x="3" y="84" width="6" height="6" fill="rgb(0,0,0)" stroke-width="0.5" stroke="rgb(0,0,0)" />
	<rect x="21" y="84" width="3" height="12" fill="rgb(0,0,0)" stroke-width="0.5" stroke="rgb(0,0,0)" />
	<rect x="15" y="90" width="6" height="6" fill="rgb(0,0,0)" stroke-width="0.5" stroke="rgb(0,0,0)" />
	<rect x="12" y="84" width="3" height="12" fill="rgb(0,0,0)" stroke-width="0.5" stroke="rgb(0,0,0)" />
	<rect x="15" y="84" width="6" height="6" fill="rgb(0,0,0)" stroke-width="0.5" stroke="rgb(0,0,0)" />
	<rect x="33" y="84" width="3" height="12" fill="rgb(255,255,0)" stroke-width="1.5" stroke="rgb(0,128,0)" />
	<rect x="27" y="90" width="6" height="6" fill="rgb(255,255,0)" stroke-width="1.5" stroke="rgb(0,128,0)" />
	<rect x="24" y="84" width="3" height="12" fill="rgb(128,0,128)" stroke-width="1.5" stroke="rgb(0,128,0)" />
	<rect x="27" y="84" width="6" height="6" fill="rgb(255,255,0)" stroke-width="1.5" stroke="rgb(0,128,0)" />
	<rect x="45" y="84" width="3" height="12" fill="rgb(255,255,0)" stroke-width="1.5" stroke="rgb(0,128,0)" />
	<rect x="39" y="90" width="6" height="6" fill="rgb(128,0,128)" stroke-width="1.5" stroke="rgb(0,128,0)" />
	<rect x="36" y="84" width="3" height="12" fill="rgb(255,255,0)" stroke-width="1.5" stroke="rgb(0,128,0)" />
	<rect x="39" y="84" width="6" height="6" fill="rgb(255,255,0)" stroke-width="1.5" stroke="rgb(0,128,0)" />
	<rect x="57" y="84" width="3" height="12" fill="rgb(128,0,128)" stroke-width="1.5" stroke="rgb(0,128,0)" />
	<rect x="51" y="90" width="6" height="6" fill="rgb(255,255,0)" stroke-width="1.5" stroke="rgb(0,128,0)" />
	<rect x="48" y="84" width="3" height="12" fill="rgb(255,255,0)" stroke-width="1.5" stroke="rgb(0,128,0)" />
	<rect x="51" y="84" width="6" height="6" fill="rgb(255,255,0)" stroke-width="1.5" stroke="rgb(0,128,0)" />
	<rect x="69" y="84" width="3" height="12" fill="rgb(0,0,0)" stroke-width="0.5" stroke="rgb(0,0,0)" />
	<rect x="63" y="90" width="6" height="6" fill="rgb(0,0,0)" stroke-width="0.5" stroke="rgb(0,0,0)" />
	<rect x="60" y="84" width="3" height="12" fill="rgb(0,0,0)" stroke-width="0.5" stroke="rgb(0,0,0)" />
	<rect x="63" y="84" width="6" height="6" fill="rgb(0,0,0)" stroke-width="0.5" stroke="rgb(0,0,0)" />
	<rect x="9" y="96" width="3" height="12" fill="rgb(0,0,0)" stroke-width="0.5" stroke="rgb(0,0,0)" />
	<rect x="3" y="102" width="6" height="6" fill="rgb(0,0,0)" stroke-width="0.5" stroke="rgb(0,0,0)" />
	<rect x="0" y="96" width="3" height="12" fill="rgb(0,0,0)" stroke-width="0.5" stroke="rgb(0,0,0)" />
	<rect x="3" y="96" width="6" height="6" fill="rgb(0,0,0)" stroke-width="0.5" stroke="rgb(0,0,0)" />
	<rect x="21" y="96" width="3" height="12" fill="rgb(255,255,0)" stroke-width="1.5" stroke="rgb(0,128,0)" />
	<rect x="15" y="102" width="6" height="6" fill="rgb(255,255,0)" stroke-width="1.5" stroke="rgb(0,128,0)" />
	<rect x="12" y="96" width="3" height="12" fill="rgb(128,0,128)" stroke-width="1.5" stroke="rgb(0,128,0)" />
	<rect x="15" y="96" width="6" height="6" fill="rgb(128,0,128)" stroke-width="1.5" stroke="rgb(0,128,0)" />
	<rect x="33" y="96" width="3" height="12" fill="rgb(128,0,128)" stroke-width="1.5" stroke="rgb(0,128,0)" />
	<rect x="27" y="102" width="6" height="6" fill="rgb(128,0,128)" stroke-width="1.5" stroke="rgb(0,128,0)" />
	<rect x="24" y="96" width="3" height="12" fill="rgb(255,255,0)" stroke-width="1.5" stroke="rgb(0,128,0)" />
	<rect x="27" y="96" width="6" height="6" fill="rgb(255,255,0)" stroke-width="1.5" stroke="rgb(0,128,0)" />
	<rect x="45" y="96" width="3" height="12" fill="rgb(0,0,0)" stroke-width="0.5" stroke="rgb(0,0,0)" />
	<rect x="39" y="102" width="6" height="6" fill="rgb(0,0,0)" stroke-width="0.5" stroke="rgb(0,0,0)" />
	<rect x="36" y="96" width="3" height="12" fill="rgb(0,0,0)" stroke-width="0.5" stroke="rgb(0,0,0)" />
	<rect x="39" y="96" width="6" height="6" fill="rgb(0,0,0)" stroke-width="0.5" stroke="rgb(0,0,0)" />
	<rect x="57" y="96" width="3" height="12" fill="rgb(128,0,128)" stroke-width="1.5" stroke="rgb(0,128,0)" />
	<rect x="51" y="102" width="6" height="6" fill="rgb(255,255,0)" stroke-width="1.5" stroke="rgb(0,128,0)" />
	<rect x="48" y="96" width="3" height="12" fill="rgb(128,0,128)" stroke-width="1.5" stroke="rgb(0,128,0)" />
	<rect x="51" y="96" width="6" height="6" fill="rgb(255,255,0)" stroke-width="1.5" stroke="rgb(0,128,0)" />
	<rect x="69" y="96" width="3" height="12" fill="rgb(0,0,0)" stroke-width="0.5" stroke="rgb(0,0,0)" />
	<rect x="63" y="102" width="6" height="6" fill="rgb(0,0,0)" stroke-width="0.5" stroke="rgb(0,0,0)" />
	<rect x="60" y="96" width="3" height="12" fill="rgb(0,0,0)" stroke-width="0.5" stroke="rgb(0,0,0)" />
	<rect x="63" y="96" width="6" height="6" fill="rgb(0,0,0)" stroke-width="0.5" stroke="rgb(0,0,0)" />
	<rect x="9" y="108" width="3" height="12" fill="rgb(0,0,0)" stroke-width="0.5" stroke="rgb(0,0,0)" />
	<rect x="3" y="114" width="6" height="6" fill="rgb(0,0,0)" stroke-width="0.5" stroke="rgb(0,0,0)" />
	<rect x="0" y="108" width="3" height="12" fill="rgb(0,0,0)" stroke-width="0.5" stroke="rgb(0,0,0)" />
	<rect x="3" y="108" width="6" height="6" fill="rgb(0,0,0)" stroke-width="0.5" stroke="rgb(0,0,0)" />
	<rect x="21" y="108" width="3" height="12" fill="rgb(128,0,128)" stroke-width="1.5" stroke="rgb(0,128,0)" />
	<rect x="15" y="114" width="6" height="6" fill="rgb(255,255,0)" stroke-width="1.5" stroke="rgb(0,128,0)" />
	<rect x="12" y="108" width="3" height="12" fill="rgb(128,0,128)" stroke-width="1.5" stroke="rgb(0,128,0)" />
	<rect x="15" y="108" width="6" height="6" fill="rgb(255,255,0)" stroke-width="1.5" stroke="rgb(0,128,0)" />
	<rect x="33" y="108" width="3" height="12" fill="rgb(0,0,0)" stroke-width="0.5" stroke="rgb(0,0,0)" />
	<rect x="27" y="114" width="6" height="6" fill="rgb(0,0,0)" stroke-width="0.5" stroke="rgb(0,0,0)" />
	<rect x="24" y="108" width="3" height="12" fill="rgb(0,0,0)" stroke-width="0.5" stroke="rgb(0,0,0)" />
	<rect x="27" y="108" width="6" height="6" fill="rgb(0,0,0)" stroke-width="0.5" stroke="rgb(0,0,0)" />
	<rect x="45" y="108" width="3" height="12" fill="rgb(255,255,0)" stroke-width="1.5" stroke="rgb(0,128,0)" />
	<rect x="39" y="114" width="6" height="6" fill="rgb(255,255,0)" stroke-width="1.5" stroke="rgb(0,128,0)" />
	<rect x="36" y="108" width="3" height="12" fill="rgb(128,0,128)" stroke-width="1.5" stroke="rgb(0,128,0)" />
	<rect x="39" y="108" width="6" height="6" fill="rgb(128,0,128)" stroke-width="1.5" stroke="rgb(0,128,0)" />
	<rect x="57" y="108" width="3" height="12" fill="rgb(128,0,128)" stroke-width="1.5" stroke="rgb(0,128,0)" />
	<rect x="51" y="114" width="6" height="6" fill="rgb(255,255,0)" stroke-width="1.5" stroke="rgb(0,128,0)" />
	<rect x="48" y="108" width="3" height="12" fill="rgb(255,255,0)" stroke-width="1.5" stroke="rgb(0,128,0)" />
	<rect x="51" y="108" width="6" height="6" fill="rgb(255,255,0)" stroke-width="1.5" stroke="rgb(0,128,0)" />
	<rect x="69" y="108" width="3" height="12" fill="rgb(0,0,0)" stroke-width="0.5" stroke="rgb(0,0,0)" />
	<rect x="63" y="114" width="6" height="6" fill="rgb(0,0,0)" stroke-width="0.5" stroke="rgb(0,0,0)" />
	<rect x="60" y="108" width="3" height="12" fill="rgb(0,0,0)" stroke-width="0.5" stroke="rgb(0,0,0)" />
	<rect x="63" y="108" width="6" height="6" fill="rgb(0,0,0)" stroke-width="0.5" stroke="rgb(0,0,0)" />
	<rect x="9" y="120" width="3" height="12" fill="rgb(0,0,0)" stroke-width="0.5" stroke="rgb(0,0,0)" />
	<rect x="3" y="126" width="6" height="6" fill="rgb(0,0,0)" stroke-width="0.5" stroke="rgb(0,0,0)" />
	<rect x="0" y="120" width="3" height="12" fill="rgb(0,0,0)" stroke-width="0.5" stroke="rgb(0,0,0)" />
	<rect x="3" y="120" width="6" height="6" fill="rgb(0,0,0)" stroke-width="0.5" stroke="rgb(0,0,0)" />
	<rect x="21" y="120" width="3" height="12" fill="rgb(255,255,0)" stroke-width="1.5" stroke="rgb(0,128,0)" />
	<rect x="15" y="126" width="6" height="6" fill="rgb(128,0,128)" stroke-width="1.5" stroke="rgb(0,128,0)" />
	<rect x="12" y="120" width="3" height="12" fill="rgb(128,0,128)" stroke-width="1.5" stroke="rgb(0,128,0)" />
	<rect x="15" y="120" width="6" height="6" fill="rgb(255,255,0)" stroke-width="1.5" stroke="rgb(0,128,0)" />
	<rect x="33" y="120" width="3" height="12" fill="rgb(255,255,0)" stroke-width="1.5" stroke="rgb(0,128,0)" />
	<rect x="27" y="126" width="6" height="6" fill="rgb(255,255,0)" stroke-width="1.5" stroke="rgb(0,128,0)" />
	<rect x="24" y="120" width="3" height="12" fill="rgb(255,255,0)" stroke-width="1.5" stroke="rgb(0,128,0)" />
	<rect x="27" y="120" width="6" height="6" fill="rgb(128,0,128)" stroke-width="1.5" stroke="rgb(0,128,0)" />
	<rect x="45" y="120" width="3" height="12" fill="rgb(255,255,0)" stroke-width="1.5" stroke="rgb(0,128,0)" />
	<rect x="39" y="126" width="6" height="6" fill="rgb(255,255,0)" stroke-width="1.5" stroke="rgb(0,128,0)" />
	<rect x="36" y="120" width="3" height="12" fill="rgb(255,255,0)" stroke-width="1.5" stroke="rgb(0,128,0)" />
	<rect x="39" y="120" width="6" height="6" fill="rgb(255,255,0)" stroke-width="1.5" stroke="rgb(0,128,0)" />
	<rect x="57" y="120" width="3" height="12" fill="rgb(128,0,128)" stroke-width="1.5" stroke="rgb(0,128,0)" />
	<rect x="51" y="126" width="6" height="6" fill="rgb(255,255,0)" stroke-width="1.5" stroke="rgb(0,128,0)" />
	<rect x="48" y="120" width="3" height="12" fill="rgb(255,255,0)" stroke-width="1.5" stroke="rgb(0,128,0)" />
	<rect x="51" y="120" width="6" height="6" fill="rgb(255,255,0)" stroke-width="1.5" stroke="rgb(0,128,0)" />
	<rect x="69" y="120" width="3" height="12" fill="rgb(0,0,0)" stroke-width="0.5" stroke="rgb(0,0,0)" />
	<rect x="63" y="126" width="6" height="6" fill="rgb(0,0,0)" stroke-width="0.5" stroke="rgb(0,0,0)" />
	<rect x="60" y="120" width="3" height="12" fill="rgb(0,0,0)" stroke-width="0.5" stroke="rgb(0,0,0)" />
	<rect x="63" y="120" width="6" height="6" fill="rgb(0,0,0)" stroke-width="0.5" stroke="rgb(0,0,0)" />
	<rect x="9" y="132" width="3" height="12" fill="rgb(0,0,0)" stroke-width="0.5" stroke="rgb(0,0,0)" />
	<rect x="3" y="138" width="6" height="6" fill="rgb(0,0,0)" stroke-width="0.5" stroke="rgb(0,0,0)" />
	<rect x="0" y="132" width="3" height="12" fill="rgb(0,0,0)" stroke-width="0.5" stroke="rgb(0,0,0)" />
	<rect x="3" y="132" width="6" height="6" fill="rgb(0,0,0)" stroke-width="0.5" stroke="rgb(0,0,0)" />
	<rect x="21" y="132" width="3" height="12" fill="rgb(0,0,0)" stroke-width="0.5" stroke="rgb(0,0,0)" />
	<rect x="15" y="138" width="6" height="6" fill="rgb(0,0,0)" stroke-width="0.5" stroke="rgb(0,0,0)" />
	<rect x="12" y="132" width="3" height="12" fill="rgb(0,0,0)" stroke-width="0.5" stroke="rgb(0,0,0)" />
	<rect x="15" y="132" width="6" height="6" fill="rgb(0,0,0)" stroke-width="0.5" stroke="rgb(0,0,0)" />
	<rect x="33" y="132" width="3" height="12" fill="rgb(255,255,0)" stroke-width="1.5" stroke="rgb(0,128,0)" />
	<rect x="27" y="138" width="6" height="6" fill="rgb(255,255,0)" stroke-width="1.5" stroke="rgb(0,128,0)" />
	<rect x="24" y="132" width="3" height="12" fill="rgb(128,0,128)" stroke-width="1.5" stroke="rgb(0,128,0)" />
	<rect x="27" y="132" width="6" height="6" fill="rgb(255,255,0)" stroke-width="1.5" stroke="rgb(0,128,0)" />
	<rect x="45" y="132" width="3" height="12" fill="rgb(255,255,0)" stroke-width="1.5" stroke="rgb(0,128,0)" />
	<rect x="39" y="138" width="6" height="6" fill="rgb(128,0,128)" stroke-width="1.5" stroke="rgb(0,128,0)" />
	<rect x="36" y="132" width="3" height="12" fill="rgb(255,255,0)" stroke-width="1.5" stroke="rgb(0,128,0)" />
	<rect x="39" y="132" width="6" height="6" fill="rgb(255,255,0)" stroke-width="1.5" stroke="rgb(0,128,0)" />
	<rect x="57" y="132" width="3" height="12" fill="rgb(128,0,128)" stroke-width="1.5" stroke="rgb(0,128,0)" />
	<rect x="51" y="138" width="6" height="6" fill="rgb(255,255,0)" stroke-width="1.5" stroke="rgb(0,128,0)" />
	<rect x="48" y="132" width="3" height="12" fill="rgb(255,255,0)" stroke-width="1.5" stroke="rgb(0,128,0)" />
	<rect x="51" y="132" width="6" height="6" fill="rgb(255,255,0)" stroke-width="1.5" stroke="rgb(0,128,0)" />
	<rect x="69" y="132" width="3" height="12" fill="rgb(0,0,0)" stroke-width="0.5" stroke="rgb(0,0,0)" />
	<rect x="63" y="138" width="6" height="6" fill="rgb(0,0,0)" stroke-width="0.5" stroke="rgb(0,0,0)" />
	<rect x="60" y="132" width="3" height="12" fill="rgb(0,0,0)" stroke-width="0.5" stroke="rgb(0,0,0)" />
	<rect x="63" y="132" width="6" height="6" fill="rgb(0,0,0)" stroke-width="0.5" stroke="rgb(0,0,0)" />
	<rect x="9" y="144" width="3" height="12" fill="rgb(0,0,0)" stroke-width="0.5" stroke="rgb(0,0,0)" />
	<rect x="3" y="150" width="6" height="6" fill="rgb(0,0,0)" stroke-width="0.5" stroke="rgb(0,0,0)" />
	<rect x="0" y="144" width="3" height="12" fill="rgb(0,0,0)" stroke-width="0.5" stroke="rgb(0,0,0)" />
	<rect x="3" y="144" width="6" height="6" fill="rgb(0,0,0)" stroke-width="0.5" stroke="rgb(0,0,0)" />
	<rect x="21" y="144" width="3" height="12" fill="rgb(255,255,0)" stroke-width="1.5" stroke="rgb(0,128,0)" />
	<rect x="15" y="150" width="6" height="6" fill="rgb(255,255,0)" stroke-width="1.5" stroke="rgb(0,128,0)" />
	<rect x="12" y="144" width="3" height="12" fill="rgb(128,0,128)" stroke-width="1.5" stroke="rgb(0,128,0)" />
	<rect x="15" y="144" width="6" height="6" fill="rgb(128,0,128)" stroke-width="1.5" stroke="rgb(0,128,0)" />
	<rect x="33" y="144" width="3" height="12" fill="rgb(128,0,128)" stroke-width="1.5" stroke="rgb(0,128,0)" />
	<rect x="27" y="150" width="6" height="6" fill="rgb(128,0,128)" stroke-width="1.5" stroke="rgb(0,128,0)" />
	<rect x="24" y="144" width="3" height="12" fill="rgb(255,255,0)" stroke-width="1.5" stroke="rgb(0,128,0)" />
	<rect x="27" y="144" width="6" height="6" fill="rgb(255,255,0)" stroke-width="1.5" stroke="rgb(0,128,0)" />
	<rect x="45" y="144" width="3" height="12" fill="rgb(0,0,0)" stroke-width="0.5" stroke="rgb(0,0,0)" />
	<rect x="39" y="150" width="6" height="6" fill="rgb(0,0,0)" stroke-width="0.5" stroke="rgb(0,0,0)" />
	<rect x="36" y="144" width="3" height="12" fill="rgb(0,0,0)" stroke-width="0.5" stroke="rgb(0,0,0)" />
	<rect x="39" y="144" width="6" height="6" fill="rgb(0,0,0)" stroke-width="0.5" stroke="rgb(0,0,0)" />
	<rect x="57" y="144" width="3" height="12" fill="rgb(128,0,128)" stroke-width="1.5" stroke="rgb(0,128,0)" />
	<rect x="51" y="150" width="6" height="6" fill="rgb(255,255,0)" stroke-width="1.5" stroke="rgb(0,128,0)" />
	<rect x="48" y="144" width="3" height="12" fill="rgb(128,0,128)" stroke-width="1.5" stroke="rgb(0,128,0)" />
	<rect x="51" y="144" width="6" height="6" fill="rgb(255,255,0)" stroke-width="1.5" stroke="rgb(0,128,0)" />
	<rect x="69" y="144" width="3" height="12" fill="rgb(0,0,0)" stroke-width="0.5" stroke="rgb(0,0,0)" />
	<rect x="63" y="150" width="6" height="6" fill="rgb(0,0,0)" stroke-width="0.5" stroke="rgb(0,0,0)" />
	<rect x="60" y="144" width="3" height="12" fill="rgb(0,0,0)" stroke-width="0.5" stroke="rgb(0,0,0)" />
	<rect x="63" y="144" width="6" height="6" fill="rgb(0,0,0)" stroke-width="0.5" stroke="rgb(0,0,0)" />
	<rect x="9" y="156" width="3" height="12" fill="rgb(0,0,0)" stroke-width="0.5" stroke="rgb(0,0,0)" />
	<rect x="3" y="162" width="6" height="6" fill="rgb(0,0,0)" stroke-width="0.5" stroke="rgb(0,0,0)" />
	<rect x="0" y="156" width="3" height="12" fill="rgb(0,0,0)" stroke-width="0.5" stroke="rgb(0,0,0)" />
	<rect x="3" y="156" width="6" height="6" fill="rgb(0,0,0)" stroke-width="0.5" stroke="rgb(0,0,0)" />
	<rect x="21" y="156" width="3" height="12" fill="rgb(128,0,128)" stroke-width="1.5" stroke="rgb(0,128,0)" />
	<rect x="15" y="162" width="6" height="6" fill="rgb(255,255,0)" stroke-width="1.5" stroke="rgb(0,128,0)" />
	<rect x="12" y="156" width="3" height="12" fill="rgb(128,0,128)" stroke-width="1.5" stroke="rgb(0,128,0)" />
	<rect x="15" y="156" width="6" height="6" fill="rgb(255,255,0)" stroke-width="1.5" stroke="rgb(0,128,0)" />
	<rect x="33" y="156" width="3" height="12" fill="rgb(0,0,0)" stroke-width="0.5" stroke="rgb(0,0,0)" />
	<rect x="27" y="162" width="6" height="6" fill="rgb(0,0,0)" stroke-width="0.5" stroke="rgb(0,0,0)" />
	<rect x="24" y="156" width="3" height="12" fill="rgb(0,0,0)" stroke-width="0.5" stroke="rgb(0,0,0)" />
	<rect x="27" y="156" width="6" height="6" fill="rgb(0,0,0)" stroke-width="0.5" stroke="rgb(0,0,0)" />
	<rect x="45" y="156" width="3" height="12" fill="rgb(255,255,0)" stroke-width="1.5" stroke="rgb(0,128,0)" />
	<rect x="39" y="162" width="6" height="6" fill="rgb(255,255,0)" stroke-width="1.5" stroke="rgb(0,128,0)" />
	<rect x="36" y="156" width="3" height="12" fill="rgb(128,0,128)" stroke-width="1.5" stroke="rgb(0,128,0)" />
	<rect x="39" y="156" width="6" height="6" fill="rgb(128,0,128)" stroke-width="1.5" stroke="rgb(0,128,0)" />
	<rect x="57" y="156" width="3" height="12" fill="rgb(128,0,128)" stroke-width="1.5" stroke="rgb(0,128,0)" />
	<rect x="51" y="162" width="6" height="6" fill="rgb(255,255,0)" stroke-width="1.5" stroke="rgb(0,128,0)" />
	<rect x="48" y="156" width="3" height="12" fill="rgb(255,255,0)" stroke-width="1.5" stroke="rgb(0,128,0)" />
	<rect x="51" y="156" width="6" height="6" fill="rgb(255,255,0)" stroke-width="1.5" stroke="rgb(0,128,0)" />
	<rect x="69" y="156" width="3" height="12" fill="rgb(0,0,0)" stroke-width="0.5" stroke="rgb(0,0,0)" />
	<rect x="63" y="162" width="6" height="6" fill="rgb(0,0,0)" stroke-width="0.5" stroke="rgb(0,0,0)" />
	<rect x="60" y="156" width="3" height="12" fill="rgb(0,0,0)" stroke-width="0.5" stroke="rgb(0,0,0)" />
	<rect x="63" y="156" width="6" height="6" fill="rgb(0,0,0)" stroke-width="0.5" stroke="rgb(0,0,0)" />
	<rect x="9" y="168" width="3" height="12" fill="rgb(0,0,0)" stroke-width="0.5" stroke="rgb(0,0,0)" />
	<rect x="3" y="174" width="6" height="6" fill="rgb(0,0,0)" stroke-width="0.5" stroke="rgb(0,0,0)" />
	<rect x="0" y="168" width="3" height="12" fill="rgb(0,0,0)" stroke-width="0.5" stroke="rgb(0,0,0)" />
	<rect x="3" y="168" width="6" height="6" fill="rgb(0,0,0)" stroke-width="0.5" stroke="rgb(0,0,0)" />
	<rect x="21" y="168" width="3" height="12" fill="rgb(255,255,0)" stroke-width="1.5" stroke="rgb(0,128,0)" />
	<rect x="15" y="174" width="6" height="6" fill="rgb(128,0,128)" stroke-width="1.5" stroke="rgb(0,128,0)" />
	<rect x="12" y="168" width="3" height="12" fill="rgb(128,0,128)" stroke-width="1.5" stroke="rgb(0,128,0)" />
	<rect x="15" y="168" width="6" height="6" fill="rgb(255,255,0)" stroke-width="1.5" stroke="rgb(0,128,0)" />
	<rect x="33" y="168" width="3" height="12" fill="rgb(255,255,0)" stroke-width="1.5" stroke="rgb(0,128,0)" />
	<rect x="27" y="174" width="6" height="6" fill="rgb(128,0,128)" stroke-width="1.5" stroke="rgb(0,128,0)" />
	<rect x="24" y="168" width="3" height="12" fill="rgb(255,255,0)" stroke-width="1.5" stroke="rgb(0,128,0)" />
	<rect x="27" y="168" width="6" height="6" fill="rgb(128,0,128)" stroke-width="1.5" stroke="rgb(0,128,0)" />
	<rect x="45" y="168" width="3" height="12" fill="rgb(255,255,0)" stroke-width="1.5" stroke="rgb(0,128,0)" />
	<rect x="39" y="174" width="6" height="6" fill="rgb(128,0,128)" stroke-width="1.5" stroke="rgb(0,128,0)" />
	<rect x="36" y="168" width="3" height="12" fill="rgb(255,255,0)" stroke-width="1.5" stroke="rgb(0,128,0)" />
	<rect x="39" y="168" width="6" height="6" fill="rgb(255,255,0)" stroke-width="1.5" stroke="rgb(0,128,0)" />
	<rect x="57" y="168" width="3" height="12" fill="rgb(128,0,128)" stroke-width="1.5" stroke="rgb(0,128,0)" />
	<rect x="51" y="174" width="6" height="6" fill="rgb(128,0,128)" stroke-width="1.5" stroke="rgb(0,128,0)" />
	<rect x="48" y="168" width="3" height="12" fill="rgb(255,255,0)" stroke-width="1.5" stroke="rgb(0,128,0)" />
	<rect x="51" y="168" width="6" height="6" fill="rgb(255,255,0)" stroke-width="1.5" stroke="rgb(0,128,0)" />
	<rect x="69" y="168" width="3" height="12" fill="rgb(0,0,0)" stroke-width="0.5" stroke="rgb(0,0,0)" />
	<rect x="63" y="174" width="6" height="6" fill="rgb(0,0,0)" stroke-width="0.5" stroke="rgb(0,0,0)" />
	<rect x="60" y="168" width="3" height="12" fill="rgb(0,0,0)" stroke-width="0.5" stroke="rgb(0,0,0)" />
	<rect x="63" y="168" width="6" height="6" fill="rgb(0,0,0)" stroke-width="0.5" stroke="rgb(0,0,0)" />
	<rect x="9" y="180" width="3" height="12" fill="rgb(0,0,0)" stroke-width="0.5" stroke="rgb(0,0,0)" />
	<rect x="3" y="186" width="6" height="6" fill="rgb(0,0,0)" stroke-width="0.5" stroke="rgb(0,0,0)" />
	<rect x="0" y="180" width="3" height="12" fill="rgb(0,0,0)" stroke-width="0.5" stroke="rgb(0,0,0)" />
	<rect x="3" y="180" width="6" height="6" fill="rgb(0,0,0)" stroke-width="0.5" stroke="rgb(0,0,0)" />
	<rect x="21" y="180" width="3" height="12" fill="rgb(0,0,0)" stroke-width="0.5" stroke="rgb(0,0,0)" />
	<rect x="15" y="186" width="6" height="6" fill="rgb(0,0,0)" stroke-width="0.5" stroke="rgb(0,0,0)" />
	<rect x="12" y="180" width="3" height="12" fill="rgb(0,0,0)" stroke-width="0.5" stroke="rgb(0,0,0)" />
	<rect x="15" y="180" width="6" height="6" fill="rgb(0,0,0)" stroke-width="0.5" stroke="rgb(0,0,0)" />
	<rect x="33" y="180" width="3" height="12" fill="rgb(0,0,0)" stroke-width="0.5" stroke="rgb(0,0,0)" />
	<rect x="27" y="186" width="6" height="6" fill="rgb(0,0,0)" stroke-width="0.5" stroke="rgb(0,0,0)" />
	<rect x="24" y="180" width="3" height="12" fill="rgb(0,0,0)" stroke-width="0.5" stroke="rgb(0,0,0)" />
	<rect x="27" y="180" width="6" height="6" fill="rgb(0,0,0)" stroke-width="0.5" stroke="rgb(0,0,0)" />
	<rect x="45" y="180" width="3" height="12" fill="rgb(0,0,0)" stroke-width="0.5" stroke="rgb(0,0,0)" />
	<rect x="39" y="186" width="6" height="6" fill="rgb(0,0,0)" stroke-width="0.5" stroke="rgb(0,0,0)" />
	<rect x="36" y="180" width="3" height="12" fill="rgb(0,0,0)" stroke-width="0.5" stroke="rgb(0,0,0)" />
	<rect x="39" y="180" width="6" height="6" fill="rgb(0,0,0)" stroke-width="0.5" stroke="rgb(0,0,0)" />
	<rect x="57" y="180" width="3" height="12" fill="rgb(0,0,0)" stroke-width="0.5" stroke="rgb(0,0,0)" />
	<rect x="51" y="186" width="6" height="6" fill="rgb(0,0,0)" stroke-width="0.5" stroke="rgb(0,0,0)" />
	<rect x="48" y="180" width="3" height="12" fill="rgb(0,0,0)" stroke-width="0.5" stroke="rgb(0,0,0)" />
	<rect x="51" y="180" width="6" height="6" fill="rgb(0,0,0)" stroke-width="0.5" stroke="rgb(0,0,0)" />
	<rect x="69" y="180" width="3" height="12" fill="rgb(0,0,0)" stroke-width="0.5" stroke="rgb(0,0,0)" />
	<rect x="63" y="186" width="6" height="6" fill="rgb(0,0,0)" stroke-width="0.5" stroke="rgb(0,0,0)" />
	<rect x="60" y="180" width="3" height="12" fill="rgb(0,0,0)" stroke-width="0.5" stroke="rgb(0,0,0)" />
	<rect x="63" y="180" width="6" height="6" fill="rgb(0,0,0)" stroke-width="0.5" stroke="rgb(0,0,0)" />
</svg>
